<?xml version="1.0" standalone="no"?>
<!DOCTYPE svg PUBLIC "-//W3C//DTD SVG 1.1//EN" "http://www.w3.org/Graphics/SVG/1.1/DTD/svg11.dtd" >
<svg xmlns="http://www.w3.org/2000/svg" xmlns:xlink="http://www.w3.org/1999/xlink" version="1.1">
<metadata>
Created by FontForge 20190801 at Mon Mar 10 16:05:04 2008
 By Jimmy Wärting
Copyright (c) 2008 by Jos Buivenga/exljbris. All rights reserved.
</metadata>
<defs>
<font id="Museo300-Regular" horiz-adv-x="606" >
  <font-face 
    font-family="Museo 300"
    font-weight="400"
    font-stretch="normal"
    units-per-em="1000"
    panose-1="2 0 0 0 0 0 0 0 0 0"
    ascent="750"
    descent="-250"
    x-height="503"
    cap-height="703"
    bbox="-53 -237 1092 883"
    underline-thickness="50"
    underline-position="-100"
    stemh="62"
    stemv="70"
    unicode-range="U+0020-FB04"
  />
<missing-glyph horiz-adv-x="510" 
d="M5 0v700h500v-700h-500zM255 395l170 255h-340zM285 350l170 -255v510zM55 95l170 255l-170 255v-510zM85 50h340l-170 255z" />
    <glyph glyph-name="f_f" unicode="ff" horiz-adv-x="600" 
d="M88 0v446h-63v57h63v18c0 166 117 187 173 187c19 0 31 -2 31 -2v-61s-9 2 -24 2c-38 0 -112 -14 -112 -127v-17h227v18c0 166 117 187 173 187c19 0 31 -2 31 -2v-61s-9 2 -24 2c-38 0 -112 -14 -112 -127v-17h128v-57h-128v-446h-68v446h-227v-446h-68z" />
    <glyph glyph-name="fi" unicode="fi" horiz-adv-x="546" 
d="M88 0v446h-63v57h63v18c0 166 117 187 173 187c19 0 31 -2 31 -2v-61s-10 2 -25 2c-38 0 -111 -14 -111 -126v-18h238c43 0 61 -18 61 -61v-361c0 -15 8 -22 22 -22h42v-59h-71c-43 0 -61 18 -61 61v363c0 14 -8 22 -22 22h-209v-446h-68zM385 617v86h66v-86h-66z" />
    <glyph glyph-name="fl" unicode="fl" horiz-adv-x="540" 
d="M261 703h127c43 0 61 -18 61 -61v-561c0 -15 8 -22 22 -22h42v-59h-71c-43 0 -61 18 -61 61v561c0 14 -8 22 -22 22h-91c-38 0 -112 -11 -112 -123v-18h128v-57h-128v-446h-68v446h-63v57h63v18c0 166 117 182 173 182z" />
    <glyph glyph-name="f_f_i" unicode="ffi" horiz-adv-x="841" 
d="M88 0v446h-63v57h63v18c0 166 117 187 173 187c19 0 31 -2 31 -2v-61s-10 2 -24 2c-39 0 -112 -14 -112 -127v-17h227v18c0 166 117 187 173 187c19 0 31 -2 31 -2v-61s-10 2 -24 2c-39 0 -112 -14 -112 -127v-17h238c43 0 61 -18 61 -61v-361c0 -15 8 -22 22 -22h42v-59
h-71c-43 0 -61 18 -61 61v363c0 14 -8 22 -22 22h-209v-446h-68v446h-227v-446h-68zM680 617v86h66v-86h-66z" />
    <glyph glyph-name="f_f_l" unicode="ffl" horiz-adv-x="834" 
d="M556 703h127c43 0 61 -18 61 -61v-561c0 -15 8 -22 22 -22h42v-59h-71c-43 0 -61 18 -61 61v561c0 14 -8 22 -22 22h-91c-38 0 -112 -11 -112 -123v-18h128v-57h-128v-446h-68v446h-227v-446h-68v446h-63v57h63v21c0 163 113 184 171 184c20 0 33 -2 33 -2v-61
s-11 2 -26 2c-40 0 -110 -15 -110 -124v-20h227v18c0 166 117 182 173 182z" />
    <glyph glyph-name="f_j" unicode="fj" horiz-adv-x="568" 
d="M88 0v446h-63v57h63v18c0 166 117 187 173 187c19 0 31 -2 31 -2v-61s-10 2 -24 2c-39 0 -112 -14 -112 -127v-17h261c43 0 61 -18 61 -61v-461c0 -167 -118 -187 -175 -187c-18 0 -29 3 -29 3v59s9 -1 22 -1c38 0 114 14 114 129v440c0 14 -8 22 -22 22h-232v-446h-68z
M409 617v86h66v-86h-66z" />
    <glyph glyph-name=".notdef" horiz-adv-x="510" 
d="M5 0v700h500v-700h-500zM255 395l170 255h-340zM285 350l170 -255v510zM55 95l170 255l-170 255v-510zM85 50h340l-170 255z" />
    <glyph glyph-name="space" unicode=" " horiz-adv-x="272" 
 />
    <glyph glyph-name="space" unicode="&#xa0;" horiz-adv-x="272" 
 />
    <glyph glyph-name="exclam" unicode="!" horiz-adv-x="297" 
d="M116 184l-3 519h70l-3 -519h-64zM111 0v77h77v-77h-77z" />
    <glyph glyph-name="quotedbl" unicode="&#x22;" horiz-adv-x="312" 
d="M187 544v169h59v-169h-59zM66 544v169h59v-169h-59z" />
    <glyph glyph-name="numbersign" unicode="#" horiz-adv-x="713" 
d="M149 0l34 195h-142l10 56h141l35 196h-141l9 56h142l35 200h61l-35 -200h173l35 200h61l-35 -200h140l-10 -56h-140l-34 -196h139l-9 -56h-140l-34 -195h-61l34 195h-173l-34 -195h-61zM254 251h172l35 196h-173z" />
    <glyph glyph-name="dollar" unicode="$" horiz-adv-x="532" 
d="M46 120l52 42s58 -109 178 -109c85 0 139 56 139 125c0 174 -347 137 -347 362c0 87 70 159 179 172v95h57v-93c67 -6 164 -37 164 -120v-50h-66v33c0 42 -53 73 -118 73c-91 0 -144 -50 -144 -109c0 -168 347 -125 347 -360c0 -94 -70 -180 -183 -191v-93h-57v93
c-139 14 -201 130 -201 130z" />
    <glyph glyph-name="percent" unicode="%" horiz-adv-x="743" 
d="M202 437c-78 0 -140 62 -140 139c0 76 62 139 140 139s141 -63 141 -139c0 -77 -63 -139 -141 -139zM68 0l536 703h71l-535 -703h-72zM202 493c46 0 82 37 82 83c0 45 -36 83 -82 83s-81 -38 -81 -83c0 -46 35 -83 81 -83zM400 126c0 77 62 140 140 140s141 -63 141 -140
c0 -76 -63 -138 -141 -138s-140 62 -140 138zM460 127c0 -46 34 -83 80 -83s82 37 82 83c0 45 -36 83 -82 83s-80 -38 -80 -83z" />
    <glyph glyph-name="ampersand" unicode="&#x26;" horiz-adv-x="624" 
d="M46 196c0 78 44 159 127 183v2s-97 31 -97 156c0 104 80 178 208 178c38 0 82 -11 82 -11l-20 -57s-33 7 -58 7c-81 0 -140 -48 -140 -121c0 -47 20 -127 151 -127h146v97h69v-97h93v-62h-93v-103c0 -168 -91 -253 -231 -253s-237 90 -237 208zM117 198
c0 -79 61 -145 166 -145c97 0 162 55 162 190v101h-144c-123 0 -184 -58 -184 -146z" />
    <glyph glyph-name="quotesingle" unicode="'" horiz-adv-x="191" 
d="M66 544v169h59v-169h-59z" />
    <glyph glyph-name="parenleft" unicode="(" horiz-adv-x="309" 
d="M85 332c0 146 35 281 108 398h64c-73 -123 -109 -251 -109 -393c0 -149 39 -299 115 -432h-63c-72 118 -115 272 -115 427z" />
    <glyph glyph-name="parenright" unicode=")" horiz-adv-x="309" 
d="M46 -95c76 133 115 283 115 432c0 142 -36 270 -109 393h64c72 -117 108 -252 108 -398c0 -155 -43 -309 -115 -427h-63z" />
    <glyph glyph-name="asterisk" unicode="*" horiz-adv-x="477" 
d="M152 337l-53 38l94 120v2l-147 42l20 63l144 -53l-6 154h68l-7 -154l146 52l20 -61l-148 -43v-2l94 -120l-52 -39l-86 127h-2z" />
    <glyph glyph-name="plus" unicode="+" 
d="M42 255v58h231v255h61v-255h230v-58h-230v-255h-61v255h-231z" />
    <glyph glyph-name="comma" unicode="," horiz-adv-x="215" 
d="M80 82h73l-73 -179h-57z" />
    <glyph glyph-name="hyphen" unicode="-" horiz-adv-x="432" 
d="M74 253v62h284v-62h-284z" />
    <glyph glyph-name="hyphen" unicode="&#xad;" horiz-adv-x="432" 
d="M74 253v62h284v-62h-284z" />
    <glyph glyph-name="period" unicode="." horiz-adv-x="215" 
d="M69 0v80h77v-80h-77z" />
    <glyph glyph-name="slash" unicode="/" horiz-adv-x="325" 
d="M3 -42l254 784h63l-253 -784h-64z" />
    <glyph glyph-name="zero" unicode="0" horiz-adv-x="602" 
d="M301 -12c-183 0 -242 160 -242 364c0 202 59 363 242 363s243 -161 243 -363c0 -204 -60 -364 -243 -364zM301 53c133 0 171 131 171 299c0 167 -38 298 -171 298s-171 -131 -171 -298c0 -168 38 -299 171 -299z" />
    <glyph glyph-name="one" unicode="1" horiz-adv-x="476" 
d="M64 0v62h157v516c0 20 1 39 1 39h-2s-7 -15 -35 -42l-75 -75l-44 45l159 158h66v-641h154v-62h-381z" />
    <glyph glyph-name="two" unicode="2" horiz-adv-x="564" 
d="M42 69c0 261 372 240 372 448c0 75 -55 132 -144 132c-70 0 -125 -36 -125 -76v-33h-66v52c0 89 121 123 193 123c134 0 214 -88 214 -197c0 -247 -372 -241 -372 -436c0 -14 8 -20 23 -20h294c14 0 22 7 22 22v47h65v-70c0 -43 -18 -61 -61 -61h-352
c-48 0 -63 20 -63 69z" />
    <glyph glyph-name="three" unicode="3" horiz-adv-x="528" 
d="M26 86l42 52s72 -84 184 -84c83 0 159 62 159 152c0 95 -82 148 -171 148h-49l-16 41l173 208c17 23 36 39 36 39v2s-20 -3 -57 -3h-183c-14 0 -22 -7 -22 -22v-47h-65v70c0 43 16 61 59 61h357v-46l-207 -243c88 -5 217 -56 217 -207c0 -119 -99 -219 -232 -219
c-139 0 -225 98 -225 98z" />
    <glyph glyph-name="four" unicode="4" horiz-adv-x="562" 
d="M15 194v46l342 463h75v-447h112v-62h-112v-194h-70v194h-347zM363 256v287c0 30 3 68 3 68h-2s-17 -29 -36 -54l-195 -258c-19 -25 -37 -44 -37 -44v-2s28 3 58 3h209z" />
    <glyph glyph-name="five" unicode="5" horiz-adv-x="569" 
d="M54 88l44 49s53 -83 163 -83c100 0 175 71 175 164c0 97 -81 165 -182 165c-79 0 -135 -39 -135 -39l-36 15l30 283c4 43 18 61 61 61h231c42 0 60 -18 60 -61v-70h-65v47c0 15 -8 22 -22 22h-178c-14 0 -20 -7 -22 -22l-18 -159c-3 -25 -6 -40 -6 -40h2s44 26 106 26
c143 0 246 -102 246 -229c0 -125 -104 -229 -247 -229c-140 0 -207 100 -207 100z" />
    <glyph glyph-name="six" unicode="6" horiz-adv-x="560" 
d="M297 -12c-153 0 -254 137 -254 321c0 179 92 406 309 406c77 0 129 -29 129 -29l-26 -61s-44 25 -102 25c-147 0 -222 -147 -235 -289h2c33 55 106 85 179 85c128 0 219 -92 219 -223c0 -146 -98 -235 -221 -235zM118 264c0 -93 73 -211 178 -211c95 0 151 72 151 169
c0 98 -63 162 -159 162c-94 0 -170 -63 -170 -120z" />
    <glyph glyph-name="seven" unicode="7" horiz-adv-x="512" 
d="M79 0l306 576c20 38 39 65 39 65v2s-18 -2 -53 -2h-253c-14 0 -22 -7 -22 -22v-47h-66v70c0 43 17 61 60 61h415v-48l-348 -655h-78z" />
    <glyph glyph-name="eight" unicode="8" horiz-adv-x="570" 
d="M47 198c0 123 125 186 125 186v2s-96 45 -96 145c0 97 76 184 212 184c133 0 215 -78 215 -187c0 -107 -94 -174 -94 -174v-2c66 -34 113 -79 113 -161c0 -110 -102 -203 -236 -203c-124 0 -239 77 -239 210zM281 403c16 -6 50 -19 63 -19c25 0 89 69 89 142
c0 76 -60 124 -145 124c-89 0 -142 -53 -142 -119c0 -74 62 -101 135 -128zM119 201c0 -92 81 -148 167 -148c83 0 164 57 164 139c0 73 -60 102 -134 132c-26 11 -74 28 -82 28c-27 0 -115 -64 -115 -151z" />
    <glyph glyph-name="nine" unicode="9" horiz-adv-x="560" 
d="M79 17l26 61s44 -25 102 -25c147 0 223 148 235 290h-2c-33 -55 -106 -86 -179 -86c-128 0 -218 92 -218 223c0 146 97 235 220 235c153 0 254 -137 254 -321c0 -179 -91 -406 -309 -406c-77 0 -129 29 -129 29zM272 319c94 0 170 63 170 120c0 93 -73 211 -178 211
c-95 0 -151 -72 -151 -169c0 -98 63 -162 159 -162z" />
    <glyph glyph-name="colon" unicode=":" horiz-adv-x="283" 
d="M103 423v80h77v-80h-77zM103 0v80h77v-80h-77z" />
    <glyph glyph-name="semicolon" unicode=";" horiz-adv-x="283" 
d="M103 423v80h77v-80h-77zM54 -97l48 179h73l-64 -179h-57z" />
    <glyph glyph-name="less" unicode="&#x3c;" 
d="M69 259v50l452 202v-67l-367 -159v-2l367 -159v-67z" />
    <glyph glyph-name="equal" unicode="=" 
d="M70 342v58h466v-58h-466zM70 168v58h466v-58h-466z" />
    <glyph glyph-name="greater" unicode="&#x3e;" 
d="M77 57v67l367 159v2l-367 159v67l452 -202v-50z" />
    <glyph glyph-name="question" unicode="?" horiz-adv-x="431" 
d="M153 184v45c0 159 175 181 175 307c0 64 -54 115 -131 115c-68 0 -121 -43 -121 -43l-37 51s62 57 161 57c114 0 200 -73 200 -177c0 -166 -179 -180 -179 -312v-43h-68zM149 0v77h77v-77h-77z" />
    <glyph glyph-name="at" unicode="@" horiz-adv-x="739" 
d="M41 242c0 204 160 367 356 367c181 0 245 -92 245 -189v-315h71v-56h-269c-115 0 -200 88 -200 192c0 103 84 192 200 192h130c-2 62 -54 117 -172 117c-164 0 -291 -140 -291 -308c0 -170 125 -306 296 -306v-60c-208 0 -366 163 -366 366zM314 242
c0 -76 59 -137 136 -137h124v275h-122c-79 0 -138 -63 -138 -138z" />
    <glyph glyph-name="A" unicode="A" horiz-adv-x="657" 
d="M12 0v62h13c18 0 29 3 36 22l230 619h75l230 -619c7 -19 17 -22 36 -22h12v-62h-32c-50 0 -65 10 -83 58l-61 166h-279l-62 -166c-18 -48 -32 -58 -82 -58h-33zM208 285h241l-93 251c-12 33 -27 91 -27 91h-2s-15 -58 -27 -91z" />
    <glyph glyph-name="B" unicode="B" 
d="M105 61v580h-65v62h299c110 0 190 -67 190 -177c0 -77 -39 -128 -90 -153v-2c72 -20 118 -89 118 -174c0 -125 -92 -197 -210 -197h-181c-43 0 -61 18 -61 61zM175 398h163c71 0 119 50 119 123c0 72 -46 120 -120 120h-162v-243zM175 84c0 -15 8 -22 22 -22h150
c85 0 137 53 137 137s-56 139 -138 139h-171v-254z" />
    <glyph glyph-name="C" unicode="C" horiz-adv-x="694" 
d="M38 357c0 203 149 358 347 358c100 0 263 -43 263 -149v-58h-66v39c0 66 -114 102 -195 102c-156 0 -276 -122 -276 -292c0 -168 119 -303 279 -303c145 0 230 99 230 99l40 -51s-97 -114 -271 -114c-206 0 -351 164 -351 369z" />
    <glyph glyph-name="D" unicode="D" horiz-adv-x="715" 
d="M107 61v580h-65v62h282c212 0 353 -129 353 -351c0 -224 -141 -352 -353 -352h-156c-43 0 -61 18 -61 61zM177 84c0 -15 8 -22 22 -22h118c173 0 287 102 287 290c0 187 -115 289 -287 289h-140v-557z" />
    <glyph glyph-name="E" unicode="E" horiz-adv-x="558" 
d="M107 61v580h-65v62h402c43 0 61 -18 61 -61v-70h-66v47c0 15 -8 22 -22 22h-240v-256h264v-62h-264v-239c0 -15 8 -22 22 -22h247c14 0 22 7 22 22v47h65v-70c0 -43 -18 -61 -61 -61h-304c-43 0 -61 18 -61 61z" />
    <glyph glyph-name="F" unicode="F" horiz-adv-x="499" 
d="M107 0v641h-65v62h374c43 0 60 -18 60 -61v-70h-65v47c0 15 -8 22 -22 22h-212v-264h255v-62h-255v-315h-70z" />
    <glyph glyph-name="G" unicode="G" horiz-adv-x="730" 
d="M39 353c0 202 152 362 351 362c163 0 246 -86 246 -86l-41 -52s-78 72 -204 72c-158 0 -279 -127 -279 -296c0 -173 119 -299 278 -299c139 0 222 103 222 103v87c0 15 -8 22 -22 22h-43v62h70c43 0 61 -18 61 -61v-267h-64v53c0 15 1 30 1 30h-2s-82 -95 -230 -95
c-192 0 -344 154 -344 365z" />
    <glyph glyph-name="H" unicode="H" horiz-adv-x="757" 
d="M107 0v619c0 15 -8 22 -22 22h-43v62h74c43 0 61 -18 61 -61v-259h404v259c0 43 18 61 60 61h75v-62h-43c-14 0 -22 -7 -22 -22v-619h-70v321h-404v-321h-70z" />
    <glyph glyph-name="I" unicode="I" horiz-adv-x="293" 
d="M46 0v62h66v579h-66v62h201v-62h-67v-579h67v-62h-201z" />
    <glyph glyph-name="J" unicode="J" horiz-adv-x="505" 
d="M24 197v28h70v-24c0 -111 66 -147 129 -147c62 0 127 37 127 145v420c0 15 -8 22 -22 22h-174v62h205c43 0 61 -18 61 -61v-445c0 -152 -101 -209 -198 -209s-198 58 -198 209z" />
    <glyph glyph-name="K" unicode="K" horiz-adv-x="590" 
d="M107 0v619c0 15 -8 22 -22 22h-43v62h74c43 0 61 -18 61 -61v-244h84c26 0 47 5 59 25l170 280h80l-181 -295c-18 -29 -36 -39 -36 -39v-2s17 -6 34 -40l122 -242c10 -21 25 -23 51 -23h20v-62h-37c-57 0 -74 6 -97 53l-128 257c-11 23 -34 26 -64 26h-77v-336h-70z" />
    <glyph glyph-name="L" unicode="L" horiz-adv-x="530" 
d="M107 61v558c0 15 -8 22 -22 22h-43v62h74c43 0 61 -18 61 -61v-558c0 -15 8 -22 22 -22h233c14 0 22 7 22 22v47h66v-70c0 -43 -18 -61 -61 -61h-291c-43 0 -61 18 -61 61z" />
    <glyph glyph-name="M" unicode="M" horiz-adv-x="845" 
d="M22 0v62h37c14 0 21 7 22 22l49 619h71l186 -409c17 -36 35 -83 35 -83h2s18 47 34 83l186 409h71l49 -619c1 -15 8 -22 22 -22h38v-62h-68c-43 0 -58 18 -61 61l-33 427c-3 38 -3 98 -3 98h-2s-19 -62 -36 -98l-167 -357h-63l-166 357c-16 35 -37 100 -37 100h-2
s0 -62 -3 -100l-33 -427c-3 -43 -18 -61 -61 -61h-67z" />
    <glyph glyph-name="N" unicode="N" horiz-adv-x="760" 
d="M42 0v62h43c14 0 22 7 22 22v619h64l359 -501c24 -35 57 -92 57 -92h2s-5 55 -5 92v440c0 43 18 61 61 61h74v-62h-43c-14 0 -22 -7 -22 -22v-619h-64l-359 501c-25 34 -58 91 -58 91h-2s6 -54 6 -91v-440c0 -43 -18 -61 -61 -61h-74z" />
    <glyph glyph-name="O" unicode="O" horiz-adv-x="791" 
d="M38 356c0 202 158 359 358 359c199 0 358 -157 358 -359c0 -206 -159 -368 -358 -368c-200 0 -358 162 -358 368zM111 356c0 -170 127 -302 285 -302c157 0 285 132 285 302c0 166 -128 293 -285 293c-158 0 -285 -127 -285 -293z" />
    <glyph glyph-name="P" unicode="P" horiz-adv-x="579" 
d="M107 0v641h-65v62h297c125 0 217 -82 217 -212c0 -131 -92 -215 -217 -215h-162v-276h-70zM177 338h153c93 0 154 57 154 153c0 95 -61 150 -153 150h-154v-303z" />
    <glyph glyph-name="Q" unicode="Q" horiz-adv-x="791" 
d="M38 356c0 202 157 359 356 359c202 0 360 -157 360 -359c0 -92 -34 -178 -88 -242l86 -86l-43 -45l-86 87c-62 -53 -141 -82 -229 -82c-199 0 -356 163 -356 368zM111 356c0 -169 124 -302 283 -302c111 0 180 64 180 64l-84 85l43 45l83 -86c40 51 65 121 65 194
c0 166 -125 292 -287 292c-159 0 -283 -126 -283 -292z" />
    <glyph glyph-name="R" unicode="R" horiz-adv-x="605" 
d="M107 0v641h-65v62h298c118 0 202 -78 202 -200c0 -109 -67 -173 -136 -188v-2s14 -8 24 -28l101 -200c10 -21 25 -23 50 -23h14v-62h-31c-57 0 -74 7 -97 53l-101 201c-19 37 -32 42 -71 42h-118v-296h-70zM177 358h156c84 0 136 55 136 143c0 87 -52 140 -135 140h-157
v-283z" />
    <glyph glyph-name="S" unicode="S" horiz-adv-x="518" 
d="M37 88l43 51s71 -86 182 -86c77 0 139 50 139 125c0 174 -347 139 -347 357c0 98 85 180 215 180c68 0 190 -29 190 -121v-50h-66v33c0 42 -58 73 -123 73c-91 0 -144 -53 -144 -113c0 -163 347 -123 347 -355c0 -105 -81 -194 -213 -194c-144 0 -223 100 -223 100z" />
    <glyph glyph-name="T" unicode="T" horiz-adv-x="620" 
d="M275 0v641h-174c-14 0 -22 -6 -22 -22v-47h-64v74c0 43 14 57 57 57h476c43 0 57 -14 57 -57v-74h-65v47c0 16 -7 22 -22 22h-173v-641h-70z" />
    <glyph glyph-name="U" unicode="U" horiz-adv-x="717" 
d="M99 241v378c0 15 -8 22 -22 22h-43v62h74c43 0 61 -18 61 -61v-398c0 -117 74 -190 189 -190s190 73 190 192v396c0 43 18 61 61 61h74v-62h-43c-14 0 -22 -7 -22 -22v-378c0 -152 -104 -253 -259 -253s-260 101 -260 253z" />
    <glyph glyph-name="V" unicode="V" horiz-adv-x="653" 
d="M289 0l-231 619c-7 19 -17 22 -36 22h-10v62h31c50 0 65 -10 82 -58l173 -473c13 -36 27 -91 27 -91h2s14 55 27 91l173 473c18 49 33 58 83 58h30v-62h-9c-19 0 -29 -3 -36 -22l-231 -619h-75z" />
    <glyph glyph-name="W" unicode="W" horiz-adv-x="945" 
d="M227 0l-161 619c-5 19 -18 22 -37 22h-12v62h31c50 0 73 -9 85 -58l122 -485c9 -36 15 -75 15 -75h2s9 39 19 75l155 540h69l141 -540c10 -36 16 -75 16 -75h2s7 39 16 75l122 485c12 49 35 58 85 58h31v-62h-11c-20 0 -32 -3 -37 -22l-162 -619h-83l-131 489
c-12 45 -23 104 -23 104h-2s-12 -58 -25 -103l-144 -490h-83z" />
    <glyph glyph-name="X" unicode="X" horiz-adv-x="570" 
d="M15 0l224 367l-152 248c-14 23 -30 26 -50 26h-21v62h37c49 0 69 -9 97 -56l90 -151c21 -36 45 -80 45 -80h2s21 44 43 80l90 151c28 47 48 56 97 56h37v-62h-21c-20 0 -36 -3 -50 -26l-153 -248l225 -367h-80l-146 242c-22 37 -45 77 -45 77h-2s-20 -42 -42 -78
l-145 -241h-80z" />
    <glyph glyph-name="Y" unicode="Y" horiz-adv-x="592" 
d="M261 0v306l-188 309c-13 21 -26 26 -47 26h-16v62h27c48 0 66 -7 96 -56l119 -199c22 -37 43 -79 43 -79h2s21 42 43 79l119 199c30 49 48 56 96 56h27v-62h-16c-20 0 -34 -5 -46 -26l-189 -309v-306h-70z" />
    <glyph glyph-name="Z" unicode="Z" horiz-adv-x="575" 
d="M19 0v49l377 528c26 37 51 64 51 64v2s-17 -2 -51 -2h-280c-14 0 -22 -7 -22 -22v-47h-65v70c0 43 18 61 61 61h443v-49l-376 -528c-26 -37 -52 -64 -52 -64v-2s17 2 52 2h303c14 0 22 7 22 22v47h65v-70c0 -43 -18 -61 -61 -61h-467z" />
    <glyph glyph-name="bracketleft" unicode="[" horiz-adv-x="303" 
d="M101 -34v703c0 43 18 61 61 61h74v-56h-50c-14 0 -22 -7 -22 -22v-669c0 -15 8 -22 22 -22h50v-56h-74c-43 0 -61 18 -61 61z" />
    <glyph glyph-name="backslash" unicode="\" horiz-adv-x="317" 
d="M259 -42l-254 784h64l253 -784h-63z" />
    <glyph glyph-name="bracketright" unicode="]" horiz-adv-x="303" 
d="M67 -39h50c14 0 22 7 22 22v669c0 15 -8 22 -22 22h-50v56h74c43 0 61 -18 61 -61v-703c0 -43 -18 -61 -61 -61h-74v56z" />
    <glyph glyph-name="asciicircum" unicode="^" 
d="M73 250l198 453h47l198 -453h-65l-156 370l-156 -370h-66z" />
    <glyph glyph-name="underscore" unicode="_" horiz-adv-x="526" 
d="M5 0h516v-58h-516v58z" />
    <glyph glyph-name="grave" unicode="`" horiz-adv-x="360" 
d="M180 752l-87 119h76l70 -119h-59z" />
    <glyph glyph-name="a" unicode="a" horiz-adv-x="529" 
d="M40 137c0 167 221 173 308 173h28v6c0 105 -38 142 -130 142c-25 0 -98 -7 -98 -44v-32h-65v48c0 70 120 85 164 85c159 0 197 -85 197 -193v-241c0 -15 8 -22 22 -22h42v-59h-69c-43 0 -60 19 -60 60c0 22 1 37 1 37h-2c1 0 -41 -109 -167 -109c-84 0 -171 49 -171 149z
M110 141c0 -47 37 -95 112 -95c96 0 154 100 154 187v23h-29c-79 0 -237 -2 -237 -115z" />
    <glyph glyph-name="b" unicode="b" horiz-adv-x="584" 
d="M84 0v622c0 14 -8 22 -22 22h-42v59h71c43 0 61 -18 61 -61v-182c0 -23 -2 -41 -2 -41h2s42 96 171 96c135 0 219 -108 219 -264c0 -159 -95 -263 -227 -263c-120 0 -165 97 -165 97h-2s2 -17 2 -41v-44h-66zM150 250c0 -101 52 -202 160 -202c89 0 162 75 162 203
c0 123 -66 202 -159 202c-84 0 -163 -60 -163 -203z" />
    <glyph glyph-name="c" unicode="c" horiz-adv-x="528" 
d="M40 251c0 154 115 264 265 264c57 0 179 -24 179 -107v-45h-64v29c0 42 -73 62 -115 62c-108 0 -195 -81 -195 -203c0 -124 91 -201 197 -201c103 0 162 71 162 71l32 -51s-68 -82 -197 -82c-150 0 -264 107 -264 263z" />
    <glyph glyph-name="d" unicode="d" horiz-adv-x="588" 
d="M42 252c0 159 94 263 226 263c122 0 164 -94 164 -94h2s-2 17 -2 38v163c0 14 -8 22 -22 22h-42v59h71c43 0 61 -18 61 -61v-561c0 -15 8 -22 22 -22h42v-59h-70c-42 0 -60 19 -60 56c0 19 2 32 2 32h-2s-41 -100 -173 -100c-135 0 -219 108 -219 264zM271 49
c84 0 163 60 163 203c0 102 -52 202 -160 202c-89 0 -162 -75 -162 -202c0 -124 65 -203 159 -203z" />
    <glyph glyph-name="e" unicode="e" horiz-adv-x="548" 
d="M40 251c0 165 113 264 248 264c139 0 211 -107 211 -232c0 -12 -2 -34 -2 -34h-386c2 -127 91 -200 195 -200c92 0 151 62 151 62l33 -51s-73 -72 -187 -72c-149 0 -263 108 -263 263zM114 303h315c-4 104 -68 155 -142 155c-83 0 -156 -54 -173 -155z" />
    <glyph glyph-name="f" unicode="f" horiz-adv-x="305" 
d="M88 0v446h-63v57h63v18c0 166 117 187 173 187c19 0 31 -2 31 -2v-61s-9 2 -24 2c-38 0 -112 -14 -112 -126v-18h128v-57h-128v-446h-68z" />
    <glyph glyph-name="g" unicode="g" horiz-adv-x="579" 
d="M42 261c0 151 83 254 218 254s167 -86 167 -86h2v19c0 36 16 55 57 55h70v-59h-41c-14 0 -22 -7 -22 -22v-410c0 -160 -118 -222 -242 -222c-57 0 -115 15 -164 40l26 57s62 -35 136 -35c98 0 176 46 176 158v44c0 19 1 36 1 36h-2c-30 -55 -80 -87 -158 -87
c-135 0 -224 107 -224 258zM276 64c80 0 150 49 150 197c0 147 -70 192 -159 192c-98 0 -155 -71 -155 -191s65 -198 164 -198z" />
    <glyph glyph-name="h" unicode="h" horiz-adv-x="605" 
d="M84 0v622c0 14 -8 22 -22 22h-42v59h71c43 0 61 -18 61 -59v-213c0 -23 -2 -41 -2 -41h2c19 48 86 125 199 125c125 0 169 -71 169 -195v-239c0 -15 8 -22 22 -22h42v-59h-71c-43 0 -61 18 -61 61v241c0 79 -12 149 -110 149c-85 0 -159 -59 -182 -143
c-6 -20 -8 -43 -8 -67v-241h-68z" />
    <glyph glyph-name="i" unicode="i" horiz-adv-x="251" 
d="M90 617v86h66v-86h-66zM92 61v361c0 14 -8 22 -22 22h-42v59h71c43 0 61 -18 61 -61v-361c0 -15 8 -22 22 -22h42v-59h-71c-43 0 -61 18 -61 61z" />
    <glyph glyph-name="j" unicode="j" horiz-adv-x="268" 
d="M114 617v86h65v-86h-65zM-21 -144c0 0 9 -1 22 -1c39 0 114 14 114 129v438c0 14 -8 22 -22 22h-42v59h71c43 0 61 -18 61 -61v-461c0 -167 -118 -187 -175 -187c-18 0 -29 3 -29 3v59z" />
    <glyph glyph-name="k" unicode="k" horiz-adv-x="498" 
d="M84 0v622c0 14 -8 22 -22 22h-42v59h71c43 0 61 -15 61 -58v-334h52c19 0 43 6 57 24l129 168h83l-145 -184c-25 -31 -38 -36 -38 -36v-2s15 -7 31 -37l91 -163c9 -17 19 -22 46 -22h27v-59h-47c-50 0 -64 8 -87 50l-100 180c-11 20 -35 22 -53 22h-46v-252h-68z" />
    <glyph glyph-name="l" unicode="l" horiz-adv-x="245" 
d="M86 61v561c0 14 -8 22 -22 22h-42v59h71c43 0 61 -18 61 -61v-561c0 -15 8 -22 22 -22h42v-59h-71c-43 0 -61 18 -61 61z" />
    <glyph glyph-name="m" unicode="m" horiz-adv-x="931" 
d="M87 0v422c0 14 -8 22 -22 22h-42v59h70c42 0 61 -18 61 -56v-23c0 -20 -2 -36 -2 -36h2c25 68 104 127 182 127c93 0 141 -43 156 -126h2c27 68 100 126 185 126c122 0 167 -71 167 -195v-239c0 -15 8 -22 22 -22h42v-59h-71c-43 0 -61 18 -61 61v242
c0 82 -17 150 -109 150c-76 0 -139 -68 -159 -142c-7 -22 -9 -46 -9 -73v-238h-68v303c0 76 -11 150 -106 150c-82 0 -143 -71 -164 -148c-6 -21 -8 -44 -8 -67v-238h-68z" />
    <glyph glyph-name="n" unicode="n" horiz-adv-x="608" 
d="M87 0v422c0 14 -8 22 -22 22h-42v59h70c42 0 61 -18 61 -56v-23c0 -20 -2 -36 -2 -36h2c18 46 82 127 200 127c125 0 169 -71 169 -195v-239c0 -15 8 -22 22 -22h42v-59h-71c-43 0 -61 18 -61 61v241c0 79 -12 149 -109 149c-86 0 -160 -59 -183 -142
c-6 -21 -8 -44 -8 -68v-241h-68z" />
    <glyph glyph-name="o" unicode="o" horiz-adv-x="611" 
d="M40 254c0 149 119 261 265 261c147 0 266 -112 266 -261c0 -152 -119 -266 -265 -266c-147 0 -266 114 -266 266zM110 254c0 -117 88 -205 196 -205c107 0 195 88 195 205c0 114 -88 199 -195 199c-108 0 -196 -85 -196 -199z" />
    <glyph glyph-name="p" unicode="p" horiz-adv-x="587" 
d="M87 -200v622c0 14 -8 22 -22 22h-42v59h69c43 0 60 -18 60 -53c0 -20 -1 -34 -1 -34h2s40 99 173 99c135 0 219 -108 219 -264c0 -159 -95 -263 -225 -263c-123 0 -165 95 -165 95h-2s2 -18 2 -44v-239h-68zM153 250c0 -101 55 -202 160 -202c89 0 162 75 162 203
c0 123 -65 202 -159 202c-84 0 -163 -60 -163 -203z" />
    <glyph glyph-name="q" unicode="q" horiz-adv-x="588" 
d="M43 252c0 159 94 263 226 263c123 0 166 -97 166 -97h2s-1 14 -1 33c0 35 18 52 60 52h69v-59h-42c-14 0 -22 -8 -22 -22v-622h-68v241c0 26 2 44 2 44h-2s-42 -97 -171 -97c-135 0 -219 108 -219 264zM272 49c84 0 163 60 163 203c0 102 -53 202 -160 202
c-89 0 -163 -75 -163 -202c0 -124 66 -203 160 -203z" />
    <glyph glyph-name="r" unicode="r" horiz-adv-x="362" 
d="M87 0v422c0 14 -8 22 -22 22h-42v59h70c42 0 61 -17 61 -57v-34c0 -21 -2 -38 -2 -38h2c24 76 80 134 159 134c14 0 27 -3 27 -3v-67s-12 2 -25 2c-71 0 -124 -56 -146 -130c-10 -32 -14 -66 -14 -98v-212h-68z" />
    <glyph glyph-name="s" unicode="s" horiz-adv-x="440" 
d="M29 76l39 47s56 -76 155 -76c56 0 106 27 106 80c0 110 -282 90 -282 252c0 91 78 136 179 136c51 0 153 -20 153 -91v-43h-64v24c0 37 -54 51 -87 51c-70 0 -112 -24 -112 -73c0 -113 282 -87 282 -254c0 -84 -76 -141 -176 -141c-131 0 -193 88 -193 88z" />
    <glyph glyph-name="t" unicode="t" horiz-adv-x="335" 
d="M93 183v263h-66v57h67v139h67v-139h126v-57h-126v-256c0 -118 75 -133 113 -133c14 0 23 2 23 2v-61s-12 -2 -29 -2c-58 0 -175 19 -175 187z" />
    <glyph glyph-name="u" unicode="u" horiz-adv-x="603" 
d="M85 183v239c0 14 -8 22 -22 22h-42v59h71c43 0 61 -18 61 -59v-243c0 -79 13 -149 110 -149c114 0 185 101 185 210v241h68v-422c0 -15 8 -22 22 -22h42v-59h-69c-42 0 -61 18 -61 56v23c0 20 2 36 2 36h-2c-20 -49 -86 -127 -196 -127c-119 0 -169 64 -169 195z" />
    <glyph glyph-name="v" unicode="v" horiz-adv-x="518" 
d="M222 0l-164 421c-7 18 -17 23 -35 23h-9v59h27c48 0 63 -10 80 -55l121 -314c9 -25 17 -59 17 -59h2s8 34 17 59l121 314c17 45 32 55 79 55h26v-59h-9c-18 0 -29 -5 -35 -23l-164 -421h-74z" />
    <glyph glyph-name="w" unicode="w" horiz-adv-x="834" 
d="M202 0l-144 421c-6 18 -17 23 -35 23h-13v59h35c48 0 64 -9 79 -56l103 -319c8 -24 15 -54 15 -54h2s8 30 16 54l123 373h68l123 -373c8 -24 16 -54 16 -54h2s6 29 14 54l104 319c15 47 31 56 79 56h35v-59h-14c-17 0 -29 -5 -35 -23l-144 -421h-75l-123 358
c-8 25 -15 54 -15 54h-2s-7 -29 -16 -54l-122 -358h-76z" />
    <glyph glyph-name="x" unicode="x" horiz-adv-x="477" 
d="M19 0l175 262l-109 161c-12 17 -26 21 -46 21h-21v59h37c51 0 64 -8 94 -55l72 -112c8 -13 17 -30 17 -30h2s9 17 16 30l73 112c30 46 42 55 94 55h36v-59h-20c-21 0 -36 -3 -47 -20l-109 -162l176 -262h-80l-123 187c-8 13 -16 28 -16 28h-2s-8 -14 -17 -28l-123 -187
h-79z" />
    <glyph glyph-name="y" unicode="y" horiz-adv-x="539" 
d="M40 -111c0 -1 32 -38 75 -38c44 0 74 36 93 82l30 69l-177 419c-8 18 -17 23 -35 23h-10v59h31c45 0 59 -10 77 -55l129 -314c10 -25 18 -54 18 -54h2s7 29 17 54l124 314c17 45 32 55 78 55h31v-59h-10c-18 0 -28 -5 -35 -23l-217 -526c-26 -64 -77 -105 -144 -105
c-70 0 -109 49 -109 49z" />
    <glyph glyph-name="z" unicode="z" horiz-adv-x="499" 
d="M39 0v44l283 353c19 24 40 46 40 46v2s-17 -2 -50 -2h-184c-14 0 -22 -7 -22 -22v-39h-64v60c0 43 18 61 61 61h349v-45l-282 -352c-20 -24 -42 -46 -42 -46v-2s18 2 51 2h208c14 0 22 7 22 22v39h64v-60c0 -43 -18 -61 -61 -61h-373z" />
    <glyph glyph-name="braceleft" unicode="{" horiz-adv-x="326" 
d="M118 83v95c0 104 -85 114 -85 114v62s85 10 85 115v82c0 165 109 179 149 179h15v-56h-9c-25 0 -92 -9 -92 -125v-98c0 -98 -80 -127 -80 -127v-2s80 -25 80 -127v-110c0 -115 67 -125 92 -125h9v-56s-6 -1 -15 -1c-40 0 -149 14 -149 180z" />
    <glyph glyph-name="bar" unicode="|" horiz-adv-x="285" 
d="M111 -157v945h63v-945h-63z" />
    <glyph glyph-name="braceright" unicode="}" horiz-adv-x="326" 
d="M44 -40h10c24 0 91 10 91 125v110c0 102 80 127 80 127v2s-80 29 -80 127v98c0 116 -67 125 -91 125h-10v56h16c39 0 148 -14 148 -179v-82c0 -105 85 -115 85 -115v-62s-85 -10 -85 -114v-95c0 -166 -109 -180 -148 -180c-10 0 -16 1 -16 1v56z" />
    <glyph glyph-name="asciitilde" unicode="~" 
d="M67 209c0 110 52 155 127 155c110 0 114 -104 199 -104c60 0 71 63 71 100h59c0 -110 -52 -155 -127 -155c-110 0 -114 104 -199 104c-60 0 -71 -63 -71 -100h-59z" />
    <glyph glyph-name="exclamdown" unicode="&#xa1;" horiz-adv-x="297" 
d="M109 426v77h77v-77h-77zM113 -200l3 519h64l3 -519h-70z" />
    <glyph glyph-name="cent" unicode="&#xa2;" horiz-adv-x="545" 
d="M256 -39v111c-131 15 -201 134 -201 280c0 145 70 264 201 279v111h57v-111c85 -10 144 -67 179 -148l-64 -24c-27 63 -71 108 -140 108c-110 0 -162 -95 -162 -215c0 -122 51 -215 162 -215c69 0 113 44 140 108l64 -25c-34 -77 -92 -140 -179 -148v-111h-57z" />
    <glyph glyph-name="sterling" unicode="&#xa3;" horiz-adv-x="582" 
d="M54 0v62h63v264h-45v55h45v149c0 105 86 185 206 185c95 0 157 -57 157 -57l-43 -50s-48 42 -114 42c-87 0 -136 -57 -136 -124v-145h191v-55h-191v-264h263c14 0 22 7 22 22v47h65v-70c0 -43 -18 -61 -61 -61h-422z" />
    <glyph glyph-name="yen" unicode="&#xa5;" horiz-adv-x="607" 
d="M107 213v52h162v41l-29 46h-137v51h105v2l-131 214c-11 18 -28 22 -48 22h-12v62h24c48 0 70 -8 99 -56l119 -199c22 -37 43 -78 43 -78h2s21 41 43 78l120 199c28 48 50 56 99 56h23v-62h-12c-20 0 -37 -4 -48 -22l-130 -214v-2h100v-51h-133l-27 -46v-41h160v-52h-160
v-213h-70v213h-162z" />
    <glyph glyph-name="section" unicode="&#xa7;" horiz-adv-x="415" 
d="M145 85l-68 434c-3 12 -4 24 -4 35c0 92 68 161 172 161c69 0 116 -42 116 -42l-35 -47s-34 29 -81 29c-61 0 -110 -39 -110 -107c0 -10 1 -20 4 -31l66 -432h-60zM60 -20l35 48s35 -30 82 -30c61 0 109 40 109 109c0 10 -1 21 -4 32l-65 429h60l68 -434
c2 -13 4 -24 4 -35c0 -93 -69 -161 -173 -161c-69 0 -116 42 -116 42z" />
    <glyph glyph-name="dieresis" unicode="&#xa8;" horiz-adv-x="493" 
d="M307 785v86h59v-86h-59zM157 785v86h59v-86h-59z" />
    <glyph glyph-name="copyright" unicode="&#xa9;" horiz-adv-x="793" 
d="M41 352c0 202 158 363 353 363c199 0 358 -161 358 -363c0 -204 -159 -364 -358 -364c-195 0 -353 160 -353 364zM100 352c0 -175 128 -310 294 -310c170 0 300 135 300 310c0 173 -130 309 -300 309c-166 0 -294 -136 -294 -309zM198 350c0 105 74 206 206 206
c110 0 163 -93 163 -93l-46 -31s-41 69 -115 69c-97 0 -149 -73 -149 -150s51 -150 149 -150c75 0 115 69 115 69l46 -31s-54 -93 -163 -93c-132 0 -206 99 -206 204z" />
    <glyph glyph-name="ordfeminine" unicode="&#xaa;" horiz-adv-x="414" 
d="M170 382c-57 0 -110 34 -110 96c0 105 134 110 190 110h13c-1 57 -21 77 -71 77c-13 0 -52 -2 -52 -20v-24h-53v39c0 44 78 53 106 53c101 0 125 -54 125 -123v-142c0 -6 3 -9 9 -9h29v-51h-47c-25 0 -41 11 -42 39v12h-2s-26 -57 -95 -57zM177 430c55 0 85 55 87 114
h-12c-45 0 -135 -2 -135 -63c0 -26 20 -51 60 -51zM58 264v47h303v-47h-303z" />
    <glyph glyph-name="guillemotleft" unicode="&#xab;" horiz-adv-x="522" 
d="M217 282l164 206h74l-164 -206l164 -205h-74zM202 77l-164 205l164 206h73l-164 -206l164 -205h-73z" />
    <glyph glyph-name="logicalnot" unicode="&#xac;" 
d="M70 342v58h466v-242h-61v184h-405z" />
    <glyph glyph-name="registered" unicode="&#xae;" horiz-adv-x="793" 
d="M41 352c0 202 158 363 353 363c199 0 358 -161 358 -363c0 -204 -159 -364 -358 -364c-195 0 -353 160 -353 364zM100 352c0 -175 128 -310 294 -310c170 0 300 135 300 310c0 173 -130 309 -300 309c-166 0 -294 -136 -294 -309zM276 157v343h-36v47h175
c69 0 117 -46 117 -116c0 -58 -37 -94 -73 -103v-2s11 -4 20 -21l45 -90c6 -12 17 -13 27 -13h10v-45h-29c-29 0 -42 3 -56 30l-54 106c-10 19 -19 22 -36 22h-54v-158h-56zM332 359h73c42 0 69 27 69 72c0 44 -27 69 -69 69h-73v-141z" />
    <glyph glyph-name="macron" unicode="&#xaf;" horiz-adv-x="461" 
d="M112 785v54h246v-54h-246z" />
    <glyph glyph-name="macron" unicode="&#x2c9;" horiz-adv-x="461" 
d="M112 785v54h246v-54h-246z" />
    <glyph glyph-name="degree" unicode="&#xb0;" horiz-adv-x="383" 
d="M191 436c-78 0 -140 62 -140 139c0 76 62 139 140 139s141 -63 141 -139c0 -77 -63 -139 -141 -139zM191 492c46 0 82 37 82 83c0 45 -36 83 -82 83s-80 -38 -80 -83c0 -46 34 -83 80 -83z" />
    <glyph glyph-name="plusminus" unicode="&#xb1;" 
d="M42 255v58h231v255h61v-255h230v-58h-230v-255h-61v255h-231zM60 -104h486v-58h-486v58z" />
    <glyph glyph-name="twosuperior" unicode="&#xb2;" horiz-adv-x="409" 
d="M96 265c-33 0 -45 12 -45 50c0 87 65 124 126 159c50 28 98 56 98 111c0 41 -30 72 -79 72c-38 0 -68 -19 -68 -40v-26h-54v39c0 58 79 81 122 81c87 0 137 -55 137 -126c0 -84 -68 -120 -128 -154c-49 -29 -97 -57 -97 -108c0 -5 3 -6 9 -6h175c4 0 6 2 6 7v35h54v-50
c0 -31 -13 -44 -44 -44h-212z" />
    <glyph glyph-name="threesuperior" unicode="&#xb3;" horiz-adv-x="409" 
d="M198 257c-88 0 -148 72 -148 72l40 39s45 -57 109 -57c45 0 88 35 88 86s-45 81 -94 81h-35l-10 34l96 117c10 12 23 24 23 24v2s-17 -3 -36 -3h-95c-7 0 -10 -3 -10 -11v-28h-54v43c0 35 11 47 47 47h221v-39l-118 -138c55 -5 123 -47 123 -130
c0 -81 -68 -139 -147 -139z" />
    <glyph glyph-name="acute" unicode="&#xb4;" horiz-adv-x="371" 
d="M115 752l70 119h76l-87 -119h-59z" />
    <glyph glyph-name="mu" unicode="&#xb5;" horiz-adv-x="603" 
d="M21 444v59h71c43 0 61 -18 61 -59v-243c0 -79 13 -149 110 -149c114 0 185 101 185 210v241h68v-422c0 -15 8 -22 22 -22h42v-59h-69c-43 0 -61 18 -61 56v23c0 20 2 36 2 36h-3s-49 -127 -195 -127c-84 0 -111 42 -111 42h-2s7 -51 7 -76v-154h-63v622
c0 14 -8 22 -22 22h-42z" />
    <glyph glyph-name="mu" unicode="&#x3bc;" horiz-adv-x="603" 
d="M21 444v59h71c43 0 61 -18 61 -59v-243c0 -79 13 -149 110 -149c114 0 185 101 185 210v241h68v-422c0 -15 8 -22 22 -22h42v-59h-69c-43 0 -61 18 -61 56v23c0 20 2 36 2 36h-3s-49 -127 -195 -127c-84 0 -111 42 -111 42h-2s7 -51 7 -76v-154h-63v622
c0 14 -8 22 -22 22h-42z" />
    <glyph glyph-name="paragraph" unicode="&#xb6;" horiz-adv-x="574" 
d="M282 -50v291c-129 0 -239 102 -239 232s109 230 238 230h239v-62h-181v-691h-57zM401 -50v631h58v-631h-58z" />
    <glyph glyph-name="periodcentered" unicode="&#xb7;" horiz-adv-x="215" 
d="M69 248v80h77v-80h-77z" />
    <glyph glyph-name="periodcentered" unicode="&#x2219;" horiz-adv-x="215" 
d="M69 248v80h77v-80h-77z" />
    <glyph glyph-name="cedilla" unicode="&#xb8;" horiz-adv-x="413" 
d="M158 20l40 -7v-8l-12 -60c41 -6 71 -31 71 -71c0 -58 -48 -79 -97 -79c-29 0 -49 5 -49 5v48s19 -6 42 -6c26 0 51 7 51 34c0 22 -22 34 -57 34c-8 0 -15 -1 -15 -1z" />
    <glyph glyph-name="onesuperior" unicode="&#xb9;" horiz-adv-x="409" 
d="M80 265v52h94v275c0 22 1 34 1 34h-2s-5 -10 -13 -18l-45 -44l-36 37l102 102h51v-386h93v-52h-245z" />
    <glyph glyph-name="ordmasculine" unicode="&#xba;" horiz-adv-x="456" 
d="M228 383c-92 0 -167 72 -167 167c0 93 75 164 167 164s167 -71 167 -164c0 -95 -75 -167 -167 -167zM228 434c62 0 112 49 112 116c0 66 -50 114 -112 114s-112 -48 -112 -114c0 -67 50 -116 112 -116zM78 264v47h303v-47h-303z" />
    <glyph glyph-name="guillemotright" unicode="&#xbb;" horiz-adv-x="522" 
d="M246 77l164 205l-164 206h74l164 -206l-164 -205h-74zM66 77l164 205l-164 206h74l164 -206l-164 -205h-74z" />
    <glyph glyph-name="onequarter" unicode="&#xbc;" horiz-adv-x="890" 
d="M269 0l297 703h62l-296 -703h-63zM78 265v52h94v275c0 22 1 34 1 34h-2s-5 -10 -13 -18l-45 -44l-36 37l102 102h50v-386h92v-52h-243zM496 117v37l208 284h60v-269h67v-52h-67v-117h-57v117h-211zM564 168c0 0 14 1 21 1h123v153c0 20 1 39 1 39h-2s-7 -14 -16 -27
l-113 -149c-6 -8 -14 -16 -14 -16v-1z" />
    <glyph glyph-name="onehalf" unicode="&#xbd;" horiz-adv-x="890" 
d="M258 0l297 703h62l-296 -703h-63zM78 265v52h94v275c0 22 1 34 1 34h-2s-5 -10 -13 -18l-45 -44l-36 37l102 102h50v-386h92v-52h-243zM519 50c0 87 65 125 126 159c50 28 98 56 98 111c0 41 -30 72 -79 72c-38 0 -68 -19 -68 -40v-25h-54v38c0 59 79 81 122 81
c87 0 137 -55 137 -126c0 -83 -68 -120 -128 -154c-49 -29 -96 -57 -96 -107c0 -5 2 -7 8 -7h175c4 0 6 2 6 7v35h54v-50c0 -30 -13 -44 -44 -44h-212c-33 0 -45 12 -45 50z" />
    <glyph glyph-name="threequarters" unicode="&#xbe;" horiz-adv-x="890" 
d="M268 0l297 703h62l-296 -703h-63zM210 257c-88 0 -148 72 -148 72l40 39s45 -57 109 -57c45 0 88 35 88 86s-45 81 -94 81h-35l-10 34l96 117c10 12 23 24 23 24v2s-17 -3 -36 -3h-95c-7 0 -10 -3 -10 -11v-28h-54v43c0 35 11 47 47 47h221v-39l-118 -138
c55 -5 123 -47 123 -130c0 -81 -68 -139 -147 -139zM496 117v37l208 284h60v-269h67v-52h-67v-117h-57v117h-211zM564 168c0 0 14 1 21 1h123v153c0 20 1 39 1 39h-2s-7 -14 -16 -27l-113 -149c-6 -8 -14 -16 -14 -16v-1z" />
    <glyph glyph-name="questiondown" unicode="&#xbf;" horiz-adv-x="431" 
d="M205 426v77h77v-77h-77zM31 -33c0 165 179 180 179 312v40h67v-43c0 -158 -174 -180 -174 -306c0 -64 54 -115 131 -115c68 0 121 42 121 42l37 -50s-62 -57 -161 -57c-114 0 -200 73 -200 177z" />
    <glyph glyph-name="Agrave" unicode="&#xc0;" horiz-adv-x="657" 
d="M12 0v62h13c18 0 29 3 36 22l230 619h75l230 -619c7 -19 17 -22 36 -22h12v-62h-32c-50 0 -65 10 -83 58l-61 166h-279l-62 -166c-18 -48 -32 -58 -82 -58h-33zM208 285h241l-93 251c-12 33 -27 91 -27 91h-2s-15 -58 -27 -91zM299 752l-87 119h76l70 -119h-59z" />
    <glyph glyph-name="Aacute" unicode="&#xc1;" horiz-adv-x="657" 
d="M12 0v62h13c18 0 29 3 36 22l230 619h75l230 -619c7 -19 17 -22 36 -22h12v-62h-32c-50 0 -65 10 -83 58l-61 166h-279l-62 -166c-18 -48 -32 -58 -82 -58h-33zM208 285h241l-93 251c-12 33 -27 91 -27 91h-2s-15 -58 -27 -91zM299 752l70 119h76l-87 -119h-59z" />
    <glyph glyph-name="Acircumflex" unicode="&#xc2;" horiz-adv-x="657" 
d="M12 0v62h13c18 0 29 3 36 22l230 619h75l230 -619c7 -19 17 -22 36 -22h12v-62h-32c-50 0 -65 10 -83 58l-61 166h-279l-62 -166c-18 -48 -32 -58 -82 -58h-33zM208 285h241l-93 251c-12 33 -27 91 -27 91h-2s-15 -58 -27 -91zM211 752l83 119h70l83 -119h-63l-54 81h-2
l-54 -81h-63z" />
    <glyph glyph-name="Atilde" unicode="&#xc3;" horiz-adv-x="657" 
d="M12 0v62h13c18 0 29 3 36 22l230 619h75l230 -619c7 -19 17 -22 36 -22h12v-62h-32c-50 0 -65 10 -83 58l-61 166h-279l-62 -166c-18 -48 -32 -58 -82 -58h-33zM208 285h241l-93 251c-12 33 -27 91 -27 91h-2s-15 -58 -27 -91zM171 755c0 77 31 117 93 117
c67 0 81 -72 126 -72c33 0 40 43 40 69h53c0 -77 -32 -117 -93 -117c-68 0 -81 71 -127 71c-33 0 -40 -42 -40 -68h-52z" />
    <glyph glyph-name="Adieresis" unicode="&#xc4;" horiz-adv-x="657" 
d="M12 0v62h13c18 0 29 3 36 22l230 619h75l230 -619c7 -19 17 -22 36 -22h12v-62h-32c-50 0 -65 10 -83 58l-61 166h-279l-62 -166c-18 -48 -32 -58 -82 -58h-33zM208 285h241l-93 251c-12 33 -27 91 -27 91h-2s-15 -58 -27 -91zM375 785v86h59v-86h-59zM225 785v86h59v-86
h-59z" />
    <glyph glyph-name="Aring" unicode="&#xc5;" horiz-adv-x="657" 
d="M12 0v62h13c18 0 29 3 36 22l230 619h75l230 -619c7 -19 17 -22 36 -22h12v-62h-32c-50 0 -65 10 -83 58l-61 166h-279l-62 -166c-18 -48 -32 -58 -82 -58h-33zM208 285h241l-93 251c-12 33 -27 91 -27 91h-2s-15 -58 -27 -91zM329 741c-40 0 -74 29 -74 71s34 71 74 71
s74 -29 74 -71s-34 -71 -74 -71zM329 779c19 0 33 14 33 33c0 20 -14 34 -33 34s-33 -14 -33 -34c0 -19 13 -33 33 -33z" />
    <glyph glyph-name="AE" unicode="&#xc6;" horiz-adv-x="823" 
d="M12 0v62h9c18 0 29 3 36 22l238 619h414c43 0 61 -18 61 -61v-70h-66v47c0 15 -8 22 -22 22h-232v-256h256v-62h-256v-239c0 -19 9 -22 28 -22h233c14 0 22 7 22 22v47h66v-70c0 -43 -18 -61 -61 -61h-288c-50 0 -70 11 -70 61v262h-159l-100 -265
c-17 -48 -32 -58 -82 -58h-27zM244 385h136v256h-40z" />
    <glyph glyph-name="Ccedilla" unicode="&#xc7;" horiz-adv-x="694" 
d="M38 357c0 203 149 358 347 358c100 0 263 -43 263 -149v-58h-66v39c0 66 -114 102 -195 102c-156 0 -276 -122 -276 -292c0 -168 116 -303 276 -303c145 0 233 98 233 98l40 -50s-94 -110 -266 -114l-9 -43c41 -6 70 -31 70 -71c0 -58 -47 -79 -96 -79c-29 0 -49 5 -49 5
v48s19 -6 42 -6c26 0 50 7 50 34c0 22 -21 34 -57 34c-7 0 -14 -1 -14 -1l19 81c-187 17 -312 173 -312 367z" />
    <glyph glyph-name="Egrave" unicode="&#xc8;" horiz-adv-x="558" 
d="M107 61v580h-65v62h402c43 0 61 -18 61 -61v-70h-66v47c0 15 -8 22 -22 22h-240v-256h264v-62h-264v-239c0 -15 8 -22 22 -22h247c14 0 22 7 22 22v47h65v-70c0 -43 -18 -61 -61 -61h-304c-43 0 -61 18 -61 61zM264 752l-87 119h76l70 -119h-59z" />
    <glyph glyph-name="Eacute" unicode="&#xc9;" horiz-adv-x="558" 
d="M107 61v580h-65v62h402c43 0 61 -18 61 -61v-70h-66v47c0 15 -8 22 -22 22h-240v-256h264v-62h-264v-239c0 -15 8 -22 22 -22h247c14 0 22 7 22 22v47h65v-70c0 -43 -18 -61 -61 -61h-304c-43 0 -61 18 -61 61zM264 752l70 119h76l-87 -119h-59z" />
    <glyph glyph-name="Ecircumflex" unicode="&#xca;" horiz-adv-x="558" 
d="M107 61v580h-65v62h402c43 0 61 -18 61 -61v-70h-66v47c0 15 -8 22 -22 22h-240v-256h264v-62h-264v-239c0 -15 8 -22 22 -22h247c14 0 22 7 22 22v47h65v-70c0 -43 -18 -61 -61 -61h-304c-43 0 -61 18 -61 61zM176 752l83 119h70l83 -119h-63l-54 81h-2l-54 -81h-63z
" />
    <glyph glyph-name="Edieresis" unicode="&#xcb;" horiz-adv-x="558" 
d="M107 61v580h-65v62h402c43 0 61 -18 61 -61v-70h-66v47c0 15 -8 22 -22 22h-240v-256h264v-62h-264v-239c0 -15 8 -22 22 -22h247c14 0 22 7 22 22v47h65v-70c0 -43 -18 -61 -61 -61h-304c-43 0 -61 18 -61 61zM340 785v86h59v-86h-59zM190 785v86h59v-86h-59z" />
    <glyph glyph-name="Igrave" unicode="&#xcc;" horiz-adv-x="293" 
d="M46 0v62h66v579h-66v62h201v-62h-67v-579h67v-62h-201zM116 752l-87 119h76l70 -119h-59z" />
    <glyph glyph-name="Iacute" unicode="&#xcd;" horiz-adv-x="293" 
d="M46 0v62h66v579h-66v62h201v-62h-67v-579h67v-62h-201zM116 752l70 119h76l-87 -119h-59z" />
    <glyph glyph-name="Icircumflex" unicode="&#xce;" horiz-adv-x="293" 
d="M46 0v62h66v579h-66v62h201v-62h-67v-579h67v-62h-201zM28 752l83 119h70l83 -119h-63l-54 81h-2l-54 -81h-63z" />
    <glyph glyph-name="Idieresis" unicode="&#xcf;" horiz-adv-x="293" 
d="M46 0v62h66v579h-66v62h201v-62h-67v-579h67v-62h-201zM192 785v86h59v-86h-59zM42 785v86h59v-86h-59z" />
    <glyph glyph-name="Eth" unicode="&#xd0;" horiz-adv-x="715" 
d="M107 61v262h-50v60h50v258h-65v62h282c212 0 353 -129 353 -351c0 -224 -141 -352 -353 -352h-156c-43 0 -61 18 -61 61zM177 84c0 -15 8 -22 22 -22h118c173 0 287 102 287 290c0 187 -115 289 -287 289h-140v-258h164v-60h-164v-239z" />
    <glyph glyph-name="Ntilde" unicode="&#xd1;" horiz-adv-x="760" 
d="M42 0v62h43c14 0 22 7 22 22v619h64l359 -501c24 -35 57 -92 57 -92h2s-5 55 -5 92v440c0 43 18 61 61 61h74v-62h-43c-14 0 -22 -7 -22 -22v-619h-64l-359 501c-25 34 -58 91 -58 91h-2s6 -54 6 -91v-440c0 -43 -18 -61 -61 -61h-74zM233 755c0 77 31 117 93 117
c67 0 81 -72 126 -72c33 0 40 43 40 69h53c0 -77 -32 -117 -93 -117c-68 0 -81 71 -127 71c-33 0 -40 -42 -40 -68h-52z" />
    <glyph glyph-name="Ograve" unicode="&#xd2;" horiz-adv-x="791" 
d="M38 356c0 202 158 359 358 359c199 0 358 -157 358 -359c0 -206 -159 -368 -358 -368c-200 0 -358 162 -358 368zM111 356c0 -170 127 -302 285 -302c157 0 285 132 285 302c0 166 -128 293 -285 293c-158 0 -285 -127 -285 -293zM363 752l-87 119h76l70 -119h-59z" />
    <glyph glyph-name="Oacute" unicode="&#xd3;" horiz-adv-x="791" 
d="M38 356c0 202 158 359 358 359c199 0 358 -157 358 -359c0 -206 -159 -368 -358 -368c-200 0 -358 162 -358 368zM111 356c0 -170 127 -302 285 -302c157 0 285 132 285 302c0 166 -128 293 -285 293c-158 0 -285 -127 -285 -293zM363 752l70 119h76l-87 -119h-59z" />
    <glyph glyph-name="Ocircumflex" unicode="&#xd4;" horiz-adv-x="791" 
d="M38 356c0 202 158 359 358 359c199 0 358 -157 358 -359c0 -206 -159 -368 -358 -368c-200 0 -358 162 -358 368zM111 356c0 -170 127 -302 285 -302c157 0 285 132 285 302c0 166 -128 293 -285 293c-158 0 -285 -127 -285 -293zM275 752l83 119h70l83 -119h-63l-54 81
h-2l-54 -81h-63z" />
    <glyph glyph-name="Otilde" unicode="&#xd5;" horiz-adv-x="791" 
d="M38 356c0 202 158 359 358 359c199 0 358 -157 358 -359c0 -206 -159 -368 -358 -368c-200 0 -358 162 -358 368zM111 356c0 -170 127 -302 285 -302c157 0 285 132 285 302c0 166 -128 293 -285 293c-158 0 -285 -127 -285 -293zM235 755c0 77 31 117 93 117
c67 0 81 -72 126 -72c33 0 40 43 40 69h53c0 -77 -32 -117 -93 -117c-68 0 -81 71 -127 71c-33 0 -40 -42 -40 -68h-52z" />
    <glyph glyph-name="Odieresis" unicode="&#xd6;" horiz-adv-x="791" 
d="M38 356c0 202 158 359 358 359c199 0 358 -157 358 -359c0 -206 -159 -368 -358 -368c-200 0 -358 162 -358 368zM111 356c0 -170 127 -302 285 -302c157 0 285 132 285 302c0 166 -128 293 -285 293c-158 0 -285 -127 -285 -293zM439 785v86h59v-86h-59zM289 785v86h59
v-86h-59z" />
    <glyph glyph-name="multiply" unicode="&#xd7;" 
d="M48 41l216 243l-216 243l41 41l214 -241l214 241l41 -41l-217 -243l217 -243l-41 -41l-214 241l-214 -241z" />
    <glyph glyph-name="Oslash" unicode="&#xd8;" horiz-adv-x="794" 
d="M116 5l49 69c-77 67 -126 168 -126 282c0 202 159 359 358 359c70 0 134 -20 189 -54l48 67l41 -30l-47 -66c77 -66 127 -163 127 -276c0 -206 -159 -368 -358 -368c-70 0 -136 20 -191 56l-48 -68zM207 131l340 475c-44 27 -95 43 -150 43c-157 0 -285 -127 -285 -293
c0 -91 36 -171 95 -225zM246 99c44 -28 96 -45 151 -45c158 0 285 132 285 302c0 88 -37 166 -96 218z" />
    <glyph glyph-name="Ugrave" unicode="&#xd9;" horiz-adv-x="717" 
d="M99 241v378c0 15 -8 22 -22 22h-43v62h74c43 0 61 -18 61 -61v-398c0 -117 74 -190 189 -190s190 73 190 192v396c0 43 18 61 61 61h74v-62h-43c-14 0 -22 -7 -22 -22v-378c0 -152 -104 -253 -259 -253s-260 101 -260 253zM330 752l-87 119h76l70 -119h-59z" />
    <glyph glyph-name="Uacute" unicode="&#xda;" horiz-adv-x="717" 
d="M99 241v378c0 15 -8 22 -22 22h-43v62h74c43 0 61 -18 61 -61v-398c0 -117 74 -190 189 -190s190 73 190 192v396c0 43 18 61 61 61h74v-62h-43c-14 0 -22 -7 -22 -22v-378c0 -152 -104 -253 -259 -253s-260 101 -260 253zM330 752l70 119h76l-87 -119h-59z" />
    <glyph glyph-name="Ucircumflex" unicode="&#xdb;" horiz-adv-x="717" 
d="M99 241v378c0 15 -8 22 -22 22h-43v62h74c43 0 61 -18 61 -61v-398c0 -117 74 -190 189 -190s190 73 190 192v396c0 43 18 61 61 61h74v-62h-43c-14 0 -22 -7 -22 -22v-378c0 -152 -104 -253 -259 -253s-260 101 -260 253zM242 752l83 119h70l83 -119h-63l-54 81h-2
l-54 -81h-63z" />
    <glyph glyph-name="Udieresis" unicode="&#xdc;" horiz-adv-x="717" 
d="M99 241v378c0 15 -8 22 -22 22h-43v62h74c43 0 61 -18 61 -61v-398c0 -117 74 -190 189 -190s190 73 190 192v396c0 43 18 61 61 61h74v-62h-43c-14 0 -22 -7 -22 -22v-378c0 -152 -104 -253 -259 -253s-260 101 -260 253zM406 785v86h59v-86h-59zM256 785v86h59v-86h-59
z" />
    <glyph glyph-name="Yacute" unicode="&#xdd;" horiz-adv-x="592" 
d="M261 0v306l-188 309c-13 21 -26 26 -47 26h-16v62h27c48 0 66 -7 96 -56l119 -199c22 -37 43 -79 43 -79h2s21 42 43 79l119 199c30 49 48 56 96 56h27v-62h-16c-20 0 -34 -5 -46 -26l-189 -309v-306h-70zM267 752l70 119h76l-87 -119h-59z" />
    <glyph glyph-name="Thorn" unicode="&#xde;" horiz-adv-x="584" 
d="M107 0v619c0 15 -8 22 -22 22h-43v62h74c43 0 61 -18 61 -61v-64h162c125 0 217 -82 217 -213c0 -130 -92 -214 -219 -214h-160v-151h-70zM177 213h153c93 0 154 57 154 152c0 96 -61 151 -153 151h-154v-303z" />
    <glyph glyph-name="germandbls" unicode="&#xdf;" horiz-adv-x="558" 
d="M20 0v59h41c14 0 22 7 22 22v450c0 120 101 184 201 184c107 0 175 -71 175 -149c0 -99 -111 -129 -111 -189c0 -73 195 -111 195 -246c0 -96 -78 -143 -162 -143c-96 0 -155 58 -155 58l25 53s55 -50 125 -50c51 0 98 25 98 84c0 99 -196 131 -196 242
c0 83 111 113 111 190c0 42 -36 88 -108 88c-65 0 -130 -44 -130 -127v-465c0 -43 -18 -61 -61 -61h-70z" />
    <glyph glyph-name="agrave" unicode="&#xe0;" horiz-adv-x="529" 
d="M40 137c0 167 221 173 308 173h28v6c0 105 -38 142 -130 142c-25 0 -98 -7 -98 -44v-32h-65v48c0 70 120 85 164 85c159 0 197 -85 197 -193v-241c0 -15 8 -22 22 -22h42v-59h-69c-43 0 -60 19 -60 60c0 22 1 37 1 37h-2c1 0 -41 -109 -167 -109c-84 0 -171 49 -171 149z
M110 141c0 -47 37 -95 112 -95c96 0 154 100 154 187v23h-29c-79 0 -237 -2 -237 -115zM230 584l-87 119h76l70 -119h-59z" />
    <glyph glyph-name="aacute" unicode="&#xe1;" horiz-adv-x="529" 
d="M40 137c0 167 221 173 308 173h28v6c0 105 -38 142 -130 142c-25 0 -98 -7 -98 -44v-32h-65v48c0 70 120 85 164 85c159 0 197 -85 197 -193v-241c0 -15 8 -22 22 -22h42v-59h-69c-43 0 -60 19 -60 60c0 22 1 37 1 37h-2c1 0 -41 -109 -167 -109c-84 0 -171 49 -171 149z
M110 141c0 -47 37 -95 112 -95c96 0 154 100 154 187v23h-29c-79 0 -237 -2 -237 -115zM230 584l70 119h76l-87 -119h-59z" />
    <glyph glyph-name="acircumflex" unicode="&#xe2;" horiz-adv-x="529" 
d="M40 137c0 167 221 173 308 173h28v6c0 105 -38 142 -130 142c-25 0 -98 -7 -98 -44v-32h-65v48c0 70 120 85 164 85c159 0 197 -85 197 -193v-241c0 -15 8 -22 22 -22h42v-59h-69c-43 0 -60 19 -60 60c0 22 1 37 1 37h-2c1 0 -41 -109 -167 -109c-84 0 -171 49 -171 149z
M110 141c0 -47 37 -95 112 -95c96 0 154 100 154 187v23h-29c-79 0 -237 -2 -237 -115zM142 584l83 119h70l83 -119h-63l-54 81h-2l-54 -81h-63z" />
    <glyph glyph-name="atilde" unicode="&#xe3;" horiz-adv-x="529" 
d="M40 137c0 167 221 173 308 173h28v6c0 105 -38 142 -130 142c-25 0 -98 -7 -98 -44v-32h-65v48c0 70 120 85 164 85c159 0 197 -85 197 -193v-241c0 -15 8 -22 22 -22h42v-59h-69c-43 0 -60 19 -60 60c0 22 1 37 1 37h-2c1 0 -41 -109 -167 -109c-84 0 -171 49 -171 149z
M110 141c0 -47 37 -95 112 -95c96 0 154 100 154 187v23h-29c-79 0 -237 -2 -237 -115zM102 587c0 77 31 117 93 117c67 0 81 -72 126 -72c33 0 40 43 40 69h53c0 -77 -32 -117 -93 -117c-68 0 -81 71 -127 71c-33 0 -40 -42 -40 -68h-52z" />
    <glyph glyph-name="adieresis" unicode="&#xe4;" horiz-adv-x="529" 
d="M40 137c0 167 221 173 308 173h28v6c0 105 -38 142 -130 142c-25 0 -98 -7 -98 -44v-32h-65v48c0 70 120 85 164 85c159 0 197 -85 197 -193v-241c0 -15 8 -22 22 -22h42v-59h-69c-43 0 -60 19 -60 60c0 22 1 37 1 37h-2c1 0 -41 -109 -167 -109c-84 0 -171 49 -171 149z
M110 141c0 -47 37 -95 112 -95c96 0 154 100 154 187v23h-29c-79 0 -237 -2 -237 -115zM306 617v86h59v-86h-59zM156 617v86h59v-86h-59z" />
    <glyph glyph-name="aring" unicode="&#xe5;" horiz-adv-x="529" 
d="M40 137c0 167 221 173 308 173h28v6c0 105 -38 142 -130 142c-25 0 -98 -7 -98 -44v-32h-65v48c0 70 120 85 164 85c159 0 197 -85 197 -193v-241c0 -15 8 -22 22 -22h42v-59h-69c-43 0 -60 19 -60 60c0 22 1 37 1 37h-2c1 0 -41 -109 -167 -109c-84 0 -171 49 -171 149z
M110 141c0 -47 37 -95 112 -95c96 0 154 100 154 187v23h-29c-79 0 -237 -2 -237 -115zM260 573c-40 0 -74 29 -74 71s34 71 74 71s74 -29 74 -71s-34 -71 -74 -71zM260 611c19 0 33 14 33 33c0 20 -14 34 -33 34s-33 -14 -33 -34c0 -19 13 -33 33 -33z" />
    <glyph glyph-name="ae" unicode="&#xe6;" horiz-adv-x="871" 
d="M40 137c0 163 190 168 302 168h33v11c0 105 -39 142 -129 142c-26 0 -98 -7 -98 -44v-32h-65v48c0 61 94 85 164 85c108 0 154 -41 174 -104h2c41 69 108 104 190 104c137 0 207 -107 207 -219c0 -20 -2 -45 -2 -45h-377c3 -131 83 -202 188 -202c91 0 151 62 151 62
l32 -51s-72 -72 -186 -72c-103 0 -184 53 -221 140h-2c-8 -26 -56 -140 -190 -140c-92 0 -173 52 -173 149zM446 305h305c-4 104 -70 152 -141 152c-83 0 -149 -52 -164 -152zM110 141c0 -49 38 -95 113 -95c96 0 153 100 153 188v17h-59c-85 0 -207 -7 -207 -110z" />
    <glyph glyph-name="ccedilla" unicode="&#xe7;" horiz-adv-x="528" 
d="M40 251c0 154 115 264 265 264c57 0 179 -24 179 -107v-45h-64v29c0 42 -73 62 -115 62c-108 0 -195 -81 -195 -203c0 -124 91 -201 197 -201c103 0 162 71 162 71l32 -51s-68 -81 -199 -82l-8 -43c41 -6 70 -31 70 -71c0 -58 -47 -79 -96 -79c-29 0 -50 5 -50 5v48
s19 -6 42 -6c26 0 51 7 51 34c0 22 -22 34 -57 34c-7 0 -15 -1 -15 -1l19 83c-126 18 -218 119 -218 259z" />
    <glyph glyph-name="egrave" unicode="&#xe8;" horiz-adv-x="548" 
d="M40 251c0 165 113 264 248 264c139 0 211 -107 211 -232c0 -12 -2 -34 -2 -34h-386c2 -127 91 -200 195 -200c92 0 151 62 151 62l33 -51s-73 -72 -187 -72c-149 0 -263 108 -263 263zM114 303h315c-4 104 -68 155 -142 155c-83 0 -156 -54 -173 -155zM256 584l-87 119
h76l70 -119h-59z" />
    <glyph glyph-name="eacute" unicode="&#xe9;" horiz-adv-x="548" 
d="M40 251c0 165 113 264 248 264c139 0 211 -107 211 -232c0 -12 -2 -34 -2 -34h-386c2 -127 91 -200 195 -200c92 0 151 62 151 62l33 -51s-73 -72 -187 -72c-149 0 -263 108 -263 263zM114 303h315c-4 104 -68 155 -142 155c-83 0 -156 -54 -173 -155zM256 584l70 119h76
l-87 -119h-59z" />
    <glyph glyph-name="ecircumflex" unicode="&#xea;" horiz-adv-x="548" 
d="M40 251c0 165 113 264 248 264c139 0 211 -107 211 -232c0 -12 -2 -34 -2 -34h-386c2 -127 91 -200 195 -200c92 0 151 62 151 62l33 -51s-73 -72 -187 -72c-149 0 -263 108 -263 263zM114 303h315c-4 104 -68 155 -142 155c-83 0 -156 -54 -173 -155zM168 584l83 119h70
l83 -119h-63l-54 81h-2l-54 -81h-63z" />
    <glyph glyph-name="edieresis" unicode="&#xeb;" horiz-adv-x="548" 
d="M40 251c0 165 113 264 248 264c139 0 211 -107 211 -232c0 -12 -2 -34 -2 -34h-386c2 -127 91 -200 195 -200c92 0 151 62 151 62l33 -51s-73 -72 -187 -72c-149 0 -263 108 -263 263zM114 303h315c-4 104 -68 155 -142 155c-83 0 -156 -54 -173 -155zM332 617v86h59v-86
h-59zM182 617v86h59v-86h-59z" />
    <glyph glyph-name="igrave" unicode="&#xec;" horiz-adv-x="252" 
d="M93 61v361c0 14 -8 22 -22 22h-42v59h71c43 0 61 -18 61 -61v-361c0 -15 8 -22 22 -22h42v-59h-71c-43 0 -61 18 -61 61zM89 584l-86 119h76l69 -119h-59z" />
    <glyph glyph-name="iacute" unicode="&#xed;" horiz-adv-x="252" 
d="M93 61v361c0 14 -8 22 -22 22h-42v59h71c43 0 61 -18 61 -61v-361c0 -15 8 -22 22 -22h42v-59h-71c-43 0 -61 18 -61 61zM89 584l70 119h76l-87 -119h-59z" />
    <glyph glyph-name="icircumflex" unicode="&#xee;" horiz-adv-x="252" 
d="M93 61v361c0 14 -8 22 -22 22h-42v59h71c43 0 61 -18 61 -61v-361c0 -15 8 -22 22 -22h42v-59h-71c-43 0 -61 18 -61 61zM1 584l84 119h69l84 -119h-63l-54 81h-2l-55 -81h-63z" />
    <glyph glyph-name="idieresis" unicode="&#xef;" horiz-adv-x="252" 
d="M93 61v361c0 14 -8 22 -22 22h-42v59h71c43 0 61 -18 61 -61v-361c0 -15 8 -22 22 -22h42v-59h-71c-43 0 -61 18 -61 61zM151 617v86h59v-86h-59zM25 617v86h60v-86h-60z" />
    <glyph glyph-name="eth" unicode="&#xf0;" horiz-adv-x="565" 
d="M37 232c0 119 82 235 239 235c96 0 144 -54 144 -54h2c-24 69 -67 120 -124 159l-176 -80l-13 48l135 63c-43 22 -91 39 -142 51l20 58c64 -16 134 -40 196 -77l131 59l13 -48l-97 -45c87 -68 151 -176 151 -328c0 -134 -73 -285 -248 -285c-147 0 -231 121 -231 244z
M107 231c0 -92 58 -182 163 -182c124 0 176 115 176 211c0 86 -65 149 -163 149c-120 0 -176 -89 -176 -178z" />
    <glyph glyph-name="ntilde" unicode="&#xf1;" horiz-adv-x="608" 
d="M87 0v422c0 14 -8 22 -22 22h-42v59h70c42 0 61 -18 61 -56v-23c0 -20 -2 -36 -2 -36h2c18 46 82 127 200 127c125 0 169 -71 169 -195v-239c0 -15 8 -22 22 -22h42v-59h-71c-43 0 -61 18 -61 61v241c0 79 -12 149 -109 149c-86 0 -160 -59 -183 -142
c-6 -21 -8 -44 -8 -68v-241h-68zM159 587c0 77 31 117 93 117c67 0 81 -72 126 -72c33 0 40 43 40 69h53c0 -77 -32 -117 -93 -117c-68 0 -81 71 -127 71c-33 0 -40 -42 -40 -68h-52z" />
    <glyph glyph-name="ograve" unicode="&#xf2;" horiz-adv-x="611" 
d="M40 254c0 149 119 261 265 261c147 0 266 -112 266 -261c0 -152 -119 -266 -265 -266c-147 0 -266 114 -266 266zM110 254c0 -117 88 -205 196 -205c107 0 195 88 195 205c0 114 -88 199 -195 199c-108 0 -196 -85 -196 -199zM276 584l-87 119h76l70 -119h-59z" />
    <glyph glyph-name="oacute" unicode="&#xf3;" horiz-adv-x="611" 
d="M40 254c0 149 119 261 265 261c147 0 266 -112 266 -261c0 -152 -119 -266 -265 -266c-147 0 -266 114 -266 266zM110 254c0 -117 88 -205 196 -205c107 0 195 88 195 205c0 114 -88 199 -195 199c-108 0 -196 -85 -196 -199zM276 584l70 119h76l-87 -119h-59z" />
    <glyph glyph-name="ocircumflex" unicode="&#xf4;" horiz-adv-x="611" 
d="M40 254c0 149 119 261 265 261c147 0 266 -112 266 -261c0 -152 -119 -266 -265 -266c-147 0 -266 114 -266 266zM110 254c0 -117 88 -205 196 -205c107 0 195 88 195 205c0 114 -88 199 -195 199c-108 0 -196 -85 -196 -199zM188 584l83 119h70l83 -119h-63l-54 81h-2
l-54 -81h-63z" />
    <glyph glyph-name="otilde" unicode="&#xf5;" horiz-adv-x="611" 
d="M40 254c0 149 119 261 265 261c147 0 266 -112 266 -261c0 -152 -119 -266 -265 -266c-147 0 -266 114 -266 266zM110 254c0 -117 88 -205 196 -205c107 0 195 88 195 205c0 114 -88 199 -195 199c-108 0 -196 -85 -196 -199zM148 587c0 77 31 117 93 117
c67 0 81 -72 126 -72c33 0 40 43 40 69h53c0 -77 -32 -117 -93 -117c-68 0 -81 71 -127 71c-33 0 -40 -42 -40 -68h-52z" />
    <glyph glyph-name="odieresis" unicode="&#xf6;" horiz-adv-x="611" 
d="M40 254c0 149 119 261 265 261c147 0 266 -112 266 -261c0 -152 -119 -266 -265 -266c-147 0 -266 114 -266 266zM110 254c0 -117 88 -205 196 -205c107 0 195 88 195 205c0 114 -88 199 -195 199c-108 0 -196 -85 -196 -199zM352 617v86h59v-86h-59zM202 617v86h59v-86
h-59z" />
    <glyph glyph-name="divide" unicode="&#xf7;" 
d="M257 433v74h75v-74h-75zM50 255v58h490v-58h-490zM257 61v74h75v-74h-75z" />
    <glyph glyph-name="oslash" unicode="&#xf8;" horiz-adv-x="611" 
d="M98 -3l37 51c-58 48 -95 121 -95 206c0 149 119 261 265 261c50 0 97 -13 137 -37l39 55l41 -30l-39 -54c54 -47 88 -116 88 -195c0 -152 -119 -266 -265 -266c-48 0 -91 11 -129 32l-38 -53zM173 102l232 324c-29 17 -63 27 -99 27c-108 0 -196 -85 -196 -199
c0 -62 25 -115 63 -152zM214 73c27 -15 58 -24 92 -24c107 0 195 88 195 205c0 56 -22 105 -58 140z" />
    <glyph glyph-name="ugrave" unicode="&#xf9;" horiz-adv-x="603" 
d="M85 183v239c0 14 -8 22 -22 22h-42v59h71c43 0 61 -18 61 -59v-243c0 -79 13 -149 110 -149c114 0 185 101 185 210v241h68v-422c0 -15 8 -22 22 -22h42v-59h-69c-42 0 -61 18 -61 56v23c0 20 2 36 2 36h-2c-20 -49 -86 -127 -196 -127c-119 0 -169 64 -169 195zM265 584
l-87 119h76l70 -119h-59z" />
    <glyph glyph-name="uacute" unicode="&#xfa;" horiz-adv-x="603" 
d="M85 183v239c0 14 -8 22 -22 22h-42v59h71c43 0 61 -18 61 -59v-243c0 -79 13 -149 110 -149c114 0 185 101 185 210v241h68v-422c0 -15 8 -22 22 -22h42v-59h-69c-42 0 -61 18 -61 56v23c0 20 2 36 2 36h-2c-20 -49 -86 -127 -196 -127c-119 0 -169 64 -169 195zM265 584
l70 119h76l-87 -119h-59z" />
    <glyph glyph-name="ucircumflex" unicode="&#xfb;" horiz-adv-x="603" 
d="M85 183v239c0 14 -8 22 -22 22h-42v59h71c43 0 61 -18 61 -59v-243c0 -79 13 -149 110 -149c114 0 185 101 185 210v241h68v-422c0 -15 8 -22 22 -22h42v-59h-69c-42 0 -61 18 -61 56v23c0 20 2 36 2 36h-2c-20 -49 -86 -127 -196 -127c-119 0 -169 64 -169 195zM177 584
l83 119h70l83 -119h-63l-54 81h-2l-54 -81h-63z" />
    <glyph glyph-name="udieresis" unicode="&#xfc;" horiz-adv-x="603" 
d="M85 183v239c0 14 -8 22 -22 22h-42v59h71c43 0 61 -18 61 -59v-243c0 -79 13 -149 110 -149c114 0 185 101 185 210v241h68v-422c0 -15 8 -22 22 -22h42v-59h-69c-42 0 -61 18 -61 56v23c0 20 2 36 2 36h-2c-20 -49 -86 -127 -196 -127c-119 0 -169 64 -169 195zM341 617
v86h59v-86h-59zM191 617v86h59v-86h-59z" />
    <glyph glyph-name="yacute" unicode="&#xfd;" horiz-adv-x="539" 
d="M40 -111c0 -1 32 -38 75 -38c44 0 74 36 93 82l30 69l-177 419c-8 18 -17 23 -35 23h-10v59h31c45 0 59 -10 77 -55l129 -314c10 -25 18 -54 18 -54h2s7 29 17 54l124 314c17 45 32 55 78 55h31v-59h-10c-18 0 -28 -5 -35 -23l-217 -526c-26 -64 -77 -105 -144 -105
c-70 0 -109 49 -109 49zM238 584l70 119h76l-87 -119h-59z" />
    <glyph glyph-name="thorn" unicode="&#xfe;" horiz-adv-x="584" 
d="M84 -200v822c0 14 -8 22 -22 22h-42v59h71c43 0 61 -18 61 -61v-179c0 -26 -2 -44 -2 -44h2c30 59 83 96 169 96c137 0 221 -108 221 -263c0 -156 -84 -264 -221 -264c-128 0 -169 94 -169 94h-2s2 -18 2 -44v-238h-68zM150 251c0 -147 80 -202 164 -202
c95 0 158 81 158 203c0 121 -63 201 -158 201c-88 0 -164 -54 -164 -202z" />
    <glyph glyph-name="ydieresis" unicode="&#xff;" horiz-adv-x="539" 
d="M40 -111c0 -1 32 -38 75 -38c44 0 74 36 93 82l30 69l-177 419c-8 18 -17 23 -35 23h-10v59h31c45 0 59 -10 77 -55l129 -314c10 -25 18 -54 18 -54h2s7 29 17 54l124 314c17 45 32 55 78 55h31v-59h-10c-18 0 -28 -5 -35 -23l-217 -526c-26 -64 -77 -105 -144 -105
c-70 0 -109 49 -109 49zM314 617v86h59v-86h-59zM164 617v86h59v-86h-59z" />
    <glyph glyph-name="Amacron" unicode="&#x100;" horiz-adv-x="657" 
d="M12 0v62h13c18 0 29 3 36 22l230 619h75l230 -619c7 -19 17 -22 36 -22h12v-62h-32c-50 0 -65 10 -83 58l-61 166h-279l-62 -166c-18 -48 -32 -58 -82 -58h-33zM208 285h241l-93 251c-12 33 -27 91 -27 91h-2s-15 -58 -27 -91zM206 785v54h246v-54h-246z" />
    <glyph glyph-name="amacron" unicode="&#x101;" horiz-adv-x="529" 
d="M40 137c0 167 221 173 308 173h28v6c0 105 -38 142 -130 142c-25 0 -98 -7 -98 -44v-32h-65v48c0 70 120 85 164 85c159 0 197 -85 197 -193v-241c0 -15 8 -22 22 -22h42v-59h-69c-43 0 -60 19 -60 60c0 22 1 37 1 37h-2c1 0 -41 -109 -167 -109c-84 0 -171 49 -171 149z
M110 141c0 -47 37 -95 112 -95c96 0 154 100 154 187v23h-29c-79 0 -237 -2 -237 -115zM137 617v54h246v-54h-246z" />
    <glyph glyph-name="Abreve" unicode="&#x102;" horiz-adv-x="657" 
d="M12 0v62h13c18 0 29 3 36 22l230 619h75l230 -619c7 -19 17 -22 36 -22h12v-62h-32c-50 0 -65 10 -83 58l-61 166h-279l-62 -166c-18 -48 -32 -58 -82 -58h-33zM208 285h241l-93 251c-12 33 -27 91 -27 91h-2s-15 -58 -27 -91zM329 749c-57 0 -114 36 -114 107v15h52v-13
c0 -44 29 -62 62 -62c31 0 61 18 61 62v13h52v-15c0 -71 -57 -107 -113 -107z" />
    <glyph glyph-name="abreve" unicode="&#x103;" horiz-adv-x="529" 
d="M40 137c0 167 221 173 308 173h28v6c0 105 -38 142 -130 142c-25 0 -98 -7 -98 -44v-32h-65v48c0 70 120 85 164 85c159 0 197 -85 197 -193v-241c0 -15 8 -22 22 -22h42v-59h-69c-43 0 -60 19 -60 60c0 22 1 37 1 37h-2c1 0 -41 -109 -167 -109c-84 0 -171 49 -171 149z
M110 141c0 -47 37 -95 112 -95c96 0 154 100 154 187v23h-29c-79 0 -237 -2 -237 -115zM260 581c-57 0 -114 36 -114 107v15h52v-13c0 -44 29 -62 62 -62c31 0 61 18 61 62v13h52v-15c0 -71 -57 -107 -113 -107z" />
    <glyph glyph-name="Aogonek" unicode="&#x104;" horiz-adv-x="657" 
d="M12 0v62h13c18 0 29 3 36 22l230 619h75l230 -619c7 -19 17 -22 36 -22h12v-62c-21 -17 -72 -59 -72 -99c0 -45 62 -50 62 -50l-16 -56s-109 7 -109 92c0 54 41 94 69 115v2c-26 6 -36 20 -49 54l-61 166h-279l-62 -166c-18 -48 -32 -58 -82 -58h-33zM208 285h241
l-93 251c-12 33 -27 91 -27 91h-2s-15 -58 -27 -91z" />
    <glyph glyph-name="aogonek" unicode="&#x105;" horiz-adv-x="529" 
d="M40 137c0 167 221 173 308 173h28v6c0 104 -38 142 -130 142c-26 0 -98 -8 -98 -44v-32h-65v48c0 70 119 85 164 85c159 0 197 -85 197 -193v-241c0 -15 8 -22 22 -22h42v-59c-22 -17 -73 -59 -73 -99c0 -45 62 -50 62 -50l-15 -56s-110 7 -110 92c0 51 38 90 66 111v2
h-11c-40 0 -49 29 -49 56v7c0 19 2 34 2 34h-2s-35 -109 -174 -109c-88 0 -164 58 -164 149zM110 141c0 -47 37 -95 112 -95c96 0 154 100 154 187v23h-29c-79 0 -237 -2 -237 -115z" />
    <glyph glyph-name="Cacute" unicode="&#x106;" horiz-adv-x="694" 
d="M38 357c0 203 149 358 347 358c100 0 263 -43 263 -149v-58h-66v39c0 66 -114 102 -195 102c-156 0 -276 -122 -276 -292c0 -168 119 -303 279 -303c145 0 230 99 230 99l40 -51s-97 -114 -271 -114c-206 0 -351 164 -351 369zM353 752l70 119h76l-87 -119h-59z" />
    <glyph glyph-name="cacute" unicode="&#x107;" horiz-adv-x="528" 
d="M40 251c0 154 115 264 265 264c57 0 179 -24 179 -107v-45h-64v29c0 42 -73 62 -115 62c-108 0 -195 -81 -195 -203c0 -124 91 -201 197 -201c103 0 162 71 162 71l32 -51s-68 -82 -197 -82c-150 0 -264 107 -264 263zM261 584l70 119h76l-87 -119h-59z" />
    <glyph glyph-name="Ccircumflex" unicode="&#x108;" horiz-adv-x="694" 
d="M38 357c0 203 149 358 347 358c100 0 263 -43 263 -149v-58h-66v39c0 66 -114 102 -195 102c-156 0 -276 -122 -276 -292c0 -168 119 -303 279 -303c145 0 230 99 230 99l40 -51s-97 -114 -271 -114c-206 0 -351 164 -351 369zM265 752l83 119h70l83 -119h-63l-54 81h-2
l-54 -81h-63z" />
    <glyph glyph-name="ccircumflex" unicode="&#x109;" horiz-adv-x="528" 
d="M40 251c0 154 115 264 265 264c57 0 179 -24 179 -107v-45h-64v29c0 42 -73 62 -115 62c-108 0 -195 -81 -195 -203c0 -124 91 -201 197 -201c103 0 162 71 162 71l32 -51s-68 -82 -197 -82c-150 0 -264 107 -264 263zM173 584l83 119h70l83 -119h-63l-54 81h-2l-54 -81
h-63z" />
    <glyph glyph-name="Cdotaccent" unicode="&#x10a;" horiz-adv-x="694" 
d="M38 357c0 203 149 358 347 358c100 0 263 -43 263 -149v-58h-66v39c0 66 -114 102 -195 102c-156 0 -276 -122 -276 -292c0 -168 119 -303 279 -303c145 0 230 99 230 99l40 -51s-97 -114 -271 -114c-206 0 -351 164 -351 369zM350 785v86h66v-86h-66z" />
    <glyph glyph-name="cdotaccent" unicode="&#x10b;" horiz-adv-x="528" 
d="M40 251c0 154 115 264 265 264c57 0 179 -24 179 -107v-45h-64v29c0 42 -73 62 -115 62c-108 0 -195 -81 -195 -203c0 -124 91 -201 197 -201c103 0 162 71 162 71l32 -51s-68 -82 -197 -82c-150 0 -264 107 -264 263zM258 617v86h66v-86h-66z" />
    <glyph glyph-name="Ccaron" unicode="&#x10c;" horiz-adv-x="694" 
d="M38 357c0 203 149 358 347 358c100 0 263 -43 263 -149v-58h-66v39c0 66 -114 102 -195 102c-156 0 -276 -122 -276 -292c0 -168 119 -303 279 -303c145 0 230 99 230 99l40 -51s-97 -114 -271 -114c-206 0 -351 164 -351 369zM348 752l-84 119h64l54 -80h2l54 80h63
l-84 -119h-69z" />
    <glyph glyph-name="ccaron" unicode="&#x10d;" horiz-adv-x="528" 
d="M40 251c0 154 115 264 265 264c57 0 179 -24 179 -107v-45h-64v29c0 42 -73 62 -115 62c-108 0 -195 -81 -195 -203c0 -124 91 -201 197 -201c103 0 162 71 162 71l32 -51s-68 -82 -197 -82c-150 0 -264 107 -264 263zM256 584l-84 119h64l54 -80h2l54 80h63l-84 -119
h-69z" />
    <glyph glyph-name="Dcaron" unicode="&#x10e;" horiz-adv-x="715" 
d="M107 61v580h-65v62h282c212 0 353 -129 353 -351c0 -224 -141 -352 -353 -352h-156c-43 0 -61 18 -61 61zM177 84c0 -15 8 -22 22 -22h118c173 0 287 102 287 290c0 187 -115 289 -287 289h-140v-557zM315 752l-84 119h64l54 -80h2l54 80h63l-84 -119h-69z" />
    <glyph glyph-name="dcaron" unicode="&#x10f;" horiz-adv-x="664" 
d="M42 252c0 159 94 263 226 263c122 0 164 -94 164 -94h2s-2 17 -2 38v163c0 14 -8 22 -22 22h-42v59h71c43 0 61 -18 61 -61v-561c0 -15 8 -22 22 -22h42v-59h-70c-42 0 -60 19 -60 56c0 19 2 32 2 32h-2s-41 -100 -173 -100c-135 0 -219 108 -219 264zM271 49
c84 0 163 60 163 203c0 102 -52 202 -160 202c-89 0 -162 -75 -162 -202c0 -124 65 -203 159 -203zM562 703h62c5 -17 7 -32 7 -48c0 -30 -9 -56 -24 -89h-53c12 30 19 54 19 80c0 17 -3 36 -11 57z" />
    <glyph glyph-name="Dcroat" unicode="&#x110;" horiz-adv-x="715" 
d="M107 61v262h-50v60h50v258h-65v62h282c212 0 353 -129 353 -351c0 -224 -141 -352 -353 -352h-156c-43 0 -61 18 -61 61zM177 84c0 -15 8 -22 22 -22h118c173 0 287 102 287 290c0 187 -115 289 -287 289h-140v-258h164v-60h-164v-239z" />
    <glyph glyph-name="dcroat" unicode="&#x111;" horiz-adv-x="588" 
d="M261 -12c-135 0 -219 108 -219 264c0 159 94 263 226 263c122 0 164 -94 164 -94h2s-2 17 -2 38v107h-131v51h131v86h68v-86h80v-51h-80v-485c0 -15 8 -22 22 -22h42v-59h-70c-42 0 -60 19 -60 56c0 19 2 32 2 32h-2s-41 -100 -173 -100zM271 49c84 0 163 60 163 203
c0 102 -52 202 -160 202c-89 0 -162 -75 -162 -202c0 -124 65 -203 159 -203z" />
    <glyph glyph-name="Emacron" unicode="&#x112;" horiz-adv-x="558" 
d="M107 61v580h-65v62h402c43 0 61 -18 61 -61v-70h-66v47c0 15 -8 22 -22 22h-240v-256h264v-62h-264v-239c0 -15 8 -22 22 -22h247c14 0 22 7 22 22v47h65v-70c0 -43 -18 -61 -61 -61h-304c-43 0 -61 18 -61 61zM171 785v54h246v-54h-246z" />
    <glyph glyph-name="emacron" unicode="&#x113;" horiz-adv-x="548" 
d="M40 251c0 165 113 264 248 264c139 0 211 -107 211 -232c0 -12 -2 -34 -2 -34h-386c2 -127 91 -200 195 -200c92 0 151 62 151 62l33 -51s-73 -72 -187 -72c-149 0 -263 108 -263 263zM114 303h315c-4 104 -68 155 -142 155c-83 0 -156 -54 -173 -155zM163 617v54h246
v-54h-246z" />
    <glyph glyph-name="Ebreve" unicode="&#x114;" horiz-adv-x="558" 
d="M107 61v580h-65v62h402c43 0 61 -18 61 -61v-70h-66v47c0 15 -8 22 -22 22h-240v-256h264v-62h-264v-239c0 -15 8 -22 22 -22h247c14 0 22 7 22 22v47h65v-70c0 -43 -18 -61 -61 -61h-304c-43 0 -61 18 -61 61zM295 749c-57 0 -114 36 -114 107v15h52v-13
c0 -44 29 -62 62 -62c31 0 61 18 61 62v13h52v-15c0 -71 -57 -107 -113 -107z" />
    <glyph glyph-name="ebreve" unicode="&#x115;" horiz-adv-x="548" 
d="M40 251c0 165 113 264 248 264c139 0 211 -107 211 -232c0 -12 -2 -34 -2 -34h-386c2 -127 91 -200 195 -200c92 0 151 62 151 62l33 -51s-73 -72 -187 -72c-149 0 -263 108 -263 263zM114 303h315c-4 104 -68 155 -142 155c-83 0 -156 -54 -173 -155zM286 581
c-57 0 -114 36 -114 107v15h52v-13c0 -44 29 -62 62 -62c31 0 61 18 61 62v13h52v-15c0 -71 -57 -107 -113 -107z" />
    <glyph glyph-name="Edotaccent" unicode="&#x116;" horiz-adv-x="558" 
d="M107 61v580h-65v62h402c43 0 61 -18 61 -61v-70h-66v47c0 15 -8 22 -22 22h-240v-256h264v-62h-264v-239c0 -15 8 -22 22 -22h247c14 0 22 7 22 22v47h65v-70c0 -43 -18 -61 -61 -61h-304c-43 0 -61 18 -61 61zM261 785v86h66v-86h-66z" />
    <glyph glyph-name="edotaccent" unicode="&#x117;" horiz-adv-x="548" 
d="M40 251c0 165 113 264 248 264c139 0 211 -107 211 -232c0 -12 -2 -34 -2 -34h-386c2 -127 91 -200 195 -200c92 0 151 62 151 62l33 -51s-73 -72 -187 -72c-149 0 -263 108 -263 263zM114 303h315c-4 104 -68 155 -142 155c-83 0 -156 -54 -173 -155zM253 617v86h66v-86
h-66z" />
    <glyph glyph-name="Eogonek" unicode="&#x118;" horiz-adv-x="558" 
d="M107 61v580h-65v62h402c43 0 61 -18 61 -61v-70h-66v47c0 15 -8 22 -22 22h-240v-256h264v-62h-264v-239c0 -15 8 -22 22 -22h247c14 0 22 7 22 22v47h65v-70c0 -27 -7 -40 -20 -52c-32 -26 -85 -62 -85 -108c0 -45 62 -50 62 -50l-15 -56s-110 7 -110 92
c0 51 35 89 65 111v2h-262c-43 0 -61 18 -61 61z" />
    <glyph glyph-name="eogonek" unicode="&#x119;" horiz-adv-x="548" 
d="M40 251c0 165 113 264 248 264c139 0 211 -107 211 -232c0 -12 -2 -34 -2 -34h-386c2 -126 91 -200 195 -200c92 0 151 62 151 62l33 -51c-42 -40 -145 -89 -145 -159c0 -45 62 -50 62 -50l-15 -56s-110 7 -110 92c0 44 28 78 54 102v2c-10 -2 -20 -3 -33 -3
c-149 0 -263 108 -263 263zM114 303h315c-5 104 -68 155 -142 155c-83 0 -156 -54 -173 -155z" />
    <glyph glyph-name="Ecaron" unicode="&#x11a;" horiz-adv-x="558" 
d="M107 61v580h-65v62h402c43 0 61 -18 61 -61v-70h-66v47c0 15 -8 22 -22 22h-240v-256h264v-62h-264v-239c0 -15 8 -22 22 -22h247c14 0 22 7 22 22v47h65v-70c0 -43 -18 -61 -61 -61h-304c-43 0 -61 18 -61 61zM259 752l-84 119h64l54 -80h2l54 80h63l-84 -119h-69z" />
    <glyph glyph-name="ecaron" unicode="&#x11b;" horiz-adv-x="548" 
d="M40 251c0 165 113 264 248 264c139 0 211 -107 211 -232c0 -12 -2 -34 -2 -34h-386c2 -127 91 -200 195 -200c92 0 151 62 151 62l33 -51s-73 -72 -187 -72c-149 0 -263 108 -263 263zM114 303h315c-4 104 -68 155 -142 155c-83 0 -156 -54 -173 -155zM251 584l-84 119
h64l54 -80h2l54 80h63l-84 -119h-69z" />
    <glyph glyph-name="Gcircumflex" unicode="&#x11c;" horiz-adv-x="730" 
d="M39 353c0 202 152 362 351 362c163 0 246 -86 246 -86l-41 -52s-78 72 -204 72c-158 0 -279 -127 -279 -296c0 -173 119 -299 278 -299c139 0 222 103 222 103v87c0 15 -8 22 -22 22h-43v62h70c43 0 61 -18 61 -61v-267h-64v53c0 15 1 30 1 30h-2s-82 -95 -230 -95
c-192 0 -344 154 -344 365zM269 752l83 119h70l83 -119h-63l-54 81h-2l-54 -81h-63z" />
    <glyph glyph-name="gcircumflex" unicode="&#x11d;" horiz-adv-x="579" 
d="M42 261c0 151 83 254 218 254s167 -86 167 -86h2v19c0 36 16 55 57 55h70v-59h-41c-14 0 -22 -7 -22 -22v-410c0 -160 -118 -222 -242 -222c-57 0 -115 15 -164 40l26 57s62 -35 136 -35c98 0 176 46 176 158v44c0 19 1 36 1 36h-2c-30 -55 -80 -87 -158 -87
c-135 0 -224 107 -224 258zM276 64c80 0 150 49 150 197c0 147 -70 192 -159 192c-98 0 -155 -71 -155 -191s65 -198 164 -198zM171 584l83 119h70l83 -119h-63l-54 81h-2l-54 -81h-63z" />
    <glyph glyph-name="Gbreve" unicode="&#x11e;" horiz-adv-x="730" 
d="M39 353c0 202 152 362 351 362c163 0 246 -86 246 -86l-41 -52s-78 72 -204 72c-158 0 -279 -127 -279 -296c0 -173 119 -299 278 -299c139 0 222 103 222 103v87c0 15 -8 22 -22 22h-43v62h70c43 0 61 -18 61 -61v-267h-64v53c0 15 1 30 1 30h-2s-82 -95 -230 -95
c-192 0 -344 154 -344 365zM388 749c-57 0 -114 36 -114 107v15h52v-13c0 -44 29 -62 62 -62c31 0 61 18 61 62v13h52v-15c0 -71 -57 -107 -113 -107z" />
    <glyph glyph-name="gbreve" unicode="&#x11f;" horiz-adv-x="579" 
d="M42 261c0 151 83 254 218 254s167 -86 167 -86h2v19c0 36 16 55 57 55h70v-59h-41c-14 0 -22 -7 -22 -22v-410c0 -160 -118 -222 -242 -222c-57 0 -115 15 -164 40l26 57s62 -35 136 -35c98 0 176 46 176 158v44c0 19 1 36 1 36h-2c-30 -55 -80 -87 -158 -87
c-135 0 -224 107 -224 258zM276 64c80 0 150 49 150 197c0 147 -70 192 -159 192c-98 0 -155 -71 -155 -191s65 -198 164 -198zM290 581c-57 0 -114 36 -114 107v15h52v-13c0 -44 29 -62 62 -62c31 0 61 18 61 62v13h52v-15c0 -71 -57 -107 -113 -107z" />
    <glyph glyph-name="Gdotaccent" unicode="&#x120;" horiz-adv-x="730" 
d="M39 353c0 202 152 362 351 362c163 0 246 -86 246 -86l-41 -52s-78 72 -204 72c-158 0 -279 -127 -279 -296c0 -173 119 -299 278 -299c139 0 222 103 222 103v87c0 15 -8 22 -22 22h-43v62h70c43 0 61 -18 61 -61v-267h-64v53c0 15 1 30 1 30h-2s-82 -95 -230 -95
c-192 0 -344 154 -344 365zM355 785v86h66v-86h-66z" />
    <glyph glyph-name="gdotaccent" unicode="&#x121;" horiz-adv-x="579" 
d="M42 261c0 151 83 254 218 254s167 -86 167 -86h2v19c0 36 16 55 57 55h70v-59h-41c-14 0 -22 -7 -22 -22v-410c0 -160 -118 -222 -242 -222c-57 0 -115 15 -164 40l26 57s62 -35 136 -35c98 0 176 46 176 158v44c0 19 1 36 1 36h-2c-30 -55 -80 -87 -158 -87
c-135 0 -224 107 -224 258zM276 64c80 0 150 49 150 197c0 147 -70 192 -159 192c-98 0 -155 -71 -155 -191s65 -198 164 -198zM256 617v86h66v-86h-66z" />
    <glyph glyph-name="Gcommaaccent" unicode="&#x122;" horiz-adv-x="730" 
d="M39 353c0 202 152 362 351 362c163 0 246 -86 246 -86l-41 -52s-78 72 -204 72c-158 0 -279 -127 -279 -296c0 -173 119 -299 278 -299c139 0 222 103 222 103v87c0 15 -8 22 -22 22h-43v62h70c43 0 61 -18 61 -61v-267h-64v53c0 15 1 30 1 30h-2s-82 -95 -230 -95
c-192 0 -344 154 -344 365zM347 -63h62c5 -17 7 -32 7 -48c0 -30 -9 -56 -24 -89h-53c12 30 19 54 19 80c0 17 -3 36 -11 57z" />
    <glyph glyph-name="gcommaaccent" unicode="&#x123;" horiz-adv-x="579" 
d="M42 261c0 151 83 254 218 254s167 -86 167 -86h2v19c0 36 16 55 57 55h70v-59h-41c-14 0 -22 -7 -22 -22v-410c0 -160 -118 -222 -242 -222c-57 0 -115 15 -164 40l26 57s62 -35 136 -35c98 0 176 46 176 158v44c0 19 1 36 1 36h-2c-30 -55 -80 -87 -158 -87
c-135 0 -224 107 -224 258zM276 64c80 0 150 49 150 197c0 147 -70 192 -159 192c-98 0 -155 -71 -155 -191s65 -198 164 -198zM311 566h-62c-5 17 -7 32 -7 48c0 30 9 56 24 89h53c-12 -30 -19 -54 -19 -80c0 -17 3 -36 11 -57z" />
    <glyph glyph-name="Hcircumflex" unicode="&#x124;" horiz-adv-x="757" 
d="M107 0v619c0 15 -8 22 -22 22h-43v62h74c43 0 61 -18 61 -61v-259h404v259c0 43 18 61 60 61h75v-62h-43c-14 0 -22 -7 -22 -22v-619h-70v321h-404v-321h-70zM261 752l83 119h70l83 -119h-63l-54 81h-2l-54 -81h-63z" />
    <glyph glyph-name="hcircumflex" unicode="&#x125;" horiz-adv-x="605" 
d="M84 0v622c0 14 -8 22 -22 22h-42v59h71c43 0 61 -18 61 -59v-213c0 -23 -2 -41 -2 -41h2c19 48 86 125 199 125c125 0 169 -71 169 -195v-239c0 -15 8 -22 22 -22h42v-59h-71c-43 0 -61 18 -61 61v241c0 79 -12 149 -110 149c-85 0 -159 -59 -182 -143
c-6 -20 -8 -43 -8 -67v-241h-68zM200 752l83 119h70l83 -119h-63l-54 81h-2l-54 -81h-63z" />
    <glyph glyph-name="Hbar" unicode="&#x126;" horiz-adv-x="757" 
d="M107 0v512h-66v54h66v137h70v-137h404v137h70v-137h65v-54h-65v-512h-70v321h-404v-321h-70zM177 383h404v129h-404v-129z" />
    <glyph glyph-name="hbar" unicode="&#x127;" horiz-adv-x="605" 
d="M84 0v566h-79v51h79v86h68v-86h131v-51h-131v-135c0 -23 -2 -41 -2 -41h2c13 37 76 125 199 125c125 0 169 -71 169 -195v-239c0 -15 8 -22 22 -22h42v-59h-71c-43 0 -61 18 -61 61v241c0 78 -12 149 -110 149c-110 0 -190 -92 -190 -210v-241h-68z" />
    <glyph glyph-name="Itilde" unicode="&#x128;" horiz-adv-x="293" 
d="M46 0v62h66v579h-66v62h201v-62h-67v-579h67v-62h-201zM-12 755c0 77 31 117 93 117c67 0 81 -72 126 -72c33 0 40 43 40 69h53c0 -77 -32 -117 -93 -117c-68 0 -81 71 -127 71c-33 0 -40 -42 -40 -68h-52z" />
    <glyph glyph-name="itilde" unicode="&#x129;" horiz-adv-x="252" 
d="M93 61v361c0 14 -8 22 -22 22h-42v59h71c43 0 61 -18 61 -61v-361c0 -15 8 -22 22 -22h42v-59h-71c-43 0 -61 18 -61 61zM-16 587c0 77 25 117 83 117c56 0 70 -70 100 -70s34 41 34 67h50c0 -77 -24 -117 -83 -117c-56 0 -70 70 -99 70c-30 0 -34 -41 -34 -67h-51z" />
    <glyph glyph-name="Imacron" unicode="&#x12a;" horiz-adv-x="293" 
d="M46 0v62h66v579h-66v62h201v-62h-67v-579h67v-62h-201zM23 785v54h246v-54h-246z" />
    <glyph glyph-name="imacron" unicode="&#x12b;" horiz-adv-x="252" 
d="M93 61v361c0 14 -8 22 -22 22h-42v59h71c43 0 61 -18 61 -61v-361c0 -15 8 -22 22 -22h42v-59h-71c-43 0 -61 18 -61 61zM13 617v54h214v-54h-214z" />
    <glyph glyph-name="Ibreve" unicode="&#x12c;" horiz-adv-x="293" 
d="M46 0v62h66v579h-66v62h201v-62h-67v-579h67v-62h-201zM146 749c-57 0 -114 36 -114 107v15h52v-13c0 -44 29 -62 62 -62c31 0 61 18 61 62v13h52v-15c0 -71 -57 -107 -113 -107z" />
    <glyph glyph-name="ibreve" unicode="&#x12d;" horiz-adv-x="252" 
d="M93 61v361c0 14 -8 22 -22 22h-42v59h71c43 0 61 -18 61 -61v-361c0 -15 8 -22 22 -22h42v-59h-71c-43 0 -61 18 -61 61zM120 581c-57 0 -114 36 -114 107v15h52v-13c0 -44 29 -62 62 -62c31 0 61 18 61 62v13h52v-15c0 -71 -57 -107 -113 -107z" />
    <glyph glyph-name="Iogonek" unicode="&#x12e;" horiz-adv-x="293" 
d="M46 0v62h66v579h-66v62h201v-62h-67v-579h67v-62c-22 -17 -73 -59 -73 -99c0 -45 62 -50 62 -50l-15 -56s-110 7 -110 92c0 51 35 89 65 111v2h-130z" />
    <glyph glyph-name="iogonek" unicode="&#x12f;" horiz-adv-x="251" 
d="M90 617v86h66v-86h-66zM160 442v-361c0 -15 8 -22 22 -22h42v-59c-21 -17 -72 -59 -72 -99c0 -45 62 -50 62 -50l-16 -56s-109 7 -109 92c0 51 36 89 65 111v2h-11c-42 0 -51 33 -51 83v339c0 14 -8 22 -22 22h-42v59h71c43 0 61 -18 61 -61z" />
    <glyph glyph-name="Idotaccent" unicode="&#x130;" horiz-adv-x="293" 
d="M46 0v62h66v579h-66v62h201v-62h-67v-579h67v-62h-201zM113 785v86h66v-86h-66z" />
    <glyph glyph-name="dotlessi" unicode="&#x131;" horiz-adv-x="252" 
d="M93 61v361c0 14 -8 22 -22 22h-42v59h71c43 0 61 -18 61 -61v-361c0 -15 8 -22 22 -22h42v-59h-71c-43 0 -61 18 -61 61z" />
    <glyph glyph-name="IJ" unicode="&#x132;" horiz-adv-x="642" 
d="M341 -5v65c64 0 147 23 147 168v391c0 15 -8 22 -22 22h-119v62h150c43 0 61 -18 61 -61v-414c0 -195 -118 -233 -217 -233zM46 0v62h66v579h-66v62h201v-62h-67v-579h67v-62h-201z" />
    <glyph glyph-name="ij" unicode="&#x133;" horiz-adv-x="510" 
d="M90 617v86h66v-86h-66zM92 61v361c0 14 -8 22 -22 22h-42v59h71c43 0 61 -18 61 -61v-361c0 -15 8 -22 22 -22h42v-59h-71c-43 0 -61 18 -61 61zM355 617v86h66v-86h-66zM220 -144c0 0 9 -1 22 -1c39 0 115 14 115 129v438c0 14 -8 22 -22 22h-42v59h71
c43 0 61 -18 61 -61v-461c0 -167 -119 -187 -176 -187c-17 0 -29 3 -29 3v59z" />
    <glyph glyph-name="Jcircumflex" unicode="&#x134;" horiz-adv-x="505" 
d="M24 197v28h70v-24c0 -111 66 -147 129 -147c62 0 127 37 127 145v420c0 15 -8 22 -22 22h-174v62h205c43 0 61 -18 61 -61v-445c0 -152 -101 -209 -198 -209s-198 58 -198 209zM162 752l83 119h70l83 -119h-63l-54 81h-2l-54 -81h-63z" />
    <glyph glyph-name="jcircumflex" unicode="&#x135;" horiz-adv-x="267" 
d="M6 584l84 119h69l84 -119h-63l-56 82l-55 -82h-63zM-21 -144c0 0 9 -2 22 -2c39 0 114 14 114 129v440c0 16 -8 22 -23 22h-41v58h70c43 0 61 -15 61 -58v-464c0 -167 -117 -187 -174 -187c-18 0 -29 3 -29 3v59z" />
    <glyph glyph-name="Kcommaaccent" unicode="&#x136;" horiz-adv-x="590" 
d="M107 0v619c0 15 -8 22 -22 22h-43v62h74c43 0 61 -18 61 -61v-244h84c26 0 47 5 59 25l170 280h80l-181 -295c-18 -29 -36 -39 -36 -39v-2s17 -6 34 -40l122 -242c10 -21 25 -23 51 -23h20v-62h-37c-57 0 -74 6 -97 53l-128 257c-11 23 -34 26 -64 26h-77v-336h-70z
M280 -63h62c5 -17 7 -32 7 -48c0 -30 -9 -56 -24 -89h-53c12 30 19 54 19 80c0 17 -3 36 -11 57z" />
    <glyph glyph-name="kcommaaccent" unicode="&#x137;" horiz-adv-x="498" 
d="M84 0v622c0 14 -8 22 -22 22h-42v59h71c43 0 61 -15 61 -58v-334h52c19 0 43 6 57 24l129 168h83l-145 -184c-25 -31 -38 -36 -38 -36v-2s15 -7 31 -37l91 -163c9 -17 19 -22 46 -22h27v-59h-47c-50 0 -64 8 -87 50l-100 180c-11 20 -35 22 -53 22h-46v-252h-68zM231 -63
h62c5 -17 7 -32 7 -48c0 -30 -9 -56 -24 -89h-53c12 30 19 54 19 80c0 17 -3 36 -11 57z" />
    <glyph glyph-name="kgreenlandic" unicode="&#x138;" horiz-adv-x="498" 
d="M84 0v422c0 14 -8 22 -22 22h-42v59h71c43 0 61 -15 61 -58v-157h52c18 0 41 3 57 24l137 191h82l-153 -206c-24 -32 -36 -36 -36 -36v-2s13 -6 30 -37l79 -141c9 -17 19 -22 46 -22h32v-59h-52c-50 0 -64 8 -87 50l-88 157c-11 21 -35 22 -53 22h-46v-229h-68z" />
    <glyph glyph-name="Lacute" unicode="&#x139;" horiz-adv-x="530" 
d="M107 61v558c0 15 -8 22 -22 22h-43v62h74c43 0 61 -18 61 -61v-558c0 -15 8 -22 22 -22h233c14 0 22 7 22 22v47h66v-70c0 -43 -18 -61 -61 -61h-291c-43 0 -61 18 -61 61zM115 752l70 119h76l-87 -119h-59z" />
    <glyph glyph-name="lacute" unicode="&#x13a;" horiz-adv-x="245" 
d="M86 61v561c0 14 -8 22 -22 22h-42v59h71c43 0 61 -18 61 -61v-561c0 -15 8 -22 22 -22h42v-59h-71c-43 0 -61 18 -61 61zM75 752l70 119h76l-87 -119h-59z" />
    <glyph glyph-name="Lcommaaccent" unicode="&#x13b;" horiz-adv-x="530" 
d="M107 61v558c0 15 -8 22 -22 22h-43v62h74c43 0 61 -18 61 -61v-558c0 -15 8 -22 22 -22h233c14 0 22 7 22 22v47h66v-70c0 -43 -18 -61 -61 -61h-291c-43 0 -61 18 -61 61zM279 -63h62c5 -17 7 -32 7 -48c0 -30 -9 -56 -24 -89h-53c12 30 19 54 19 80c0 17 -3 36 -11 57z
" />
    <glyph glyph-name="lcommaaccent" unicode="&#x13c;" horiz-adv-x="245" 
d="M86 61v561c0 14 -8 22 -22 22h-42v59h71c43 0 61 -18 61 -61v-561c0 -15 8 -22 22 -22h42v-59h-71c-43 0 -61 18 -61 61zM103 -63h62c5 -17 7 -32 7 -48c0 -30 -9 -56 -24 -89h-53c12 30 19 54 19 80c0 17 -3 36 -11 57z" />
    <glyph glyph-name="Lcaron" unicode="&#x13d;" horiz-adv-x="530" 
d="M107 61v558c0 15 -8 22 -22 22h-43v62h74c43 0 61 -18 61 -61v-558c0 -15 8 -22 22 -22h233c14 0 22 7 22 22v47h66v-70c0 -43 -18 -61 -61 -61h-291c-43 0 -61 18 -61 61zM268 703h62c5 -17 7 -32 7 -48c0 -30 -9 -56 -24 -89h-53c12 30 19 54 19 80c0 17 -3 36 -11 57z
" />
    <glyph glyph-name="lcaron" unicode="&#x13e;" horiz-adv-x="318" 
d="M86 61v561c0 14 -8 22 -22 22h-42v59h71c43 0 61 -18 61 -61v-561c0 -15 8 -22 22 -22h42v-59h-71c-43 0 -61 18 -61 61zM216 703h62c5 -17 7 -32 7 -48c0 -30 -9 -56 -24 -89h-53c12 30 19 54 19 80c0 17 -3 36 -11 57z" />
    <glyph glyph-name="Ldot" unicode="&#x13f;" horiz-adv-x="530" 
d="M107 61v558c0 15 -8 22 -22 22h-43v62h74c43 0 61 -18 61 -61v-558c0 -15 8 -22 22 -22h233c14 0 22 7 22 22v47h66v-70c0 -43 -18 -61 -61 -61h-291c-43 0 -61 18 -61 61zM301 332v80h77v-80h-77z" />
    <glyph glyph-name="ldot" unicode="&#x140;" horiz-adv-x="305" 
d="M86 61v561c0 14 -8 22 -22 22h-42v59h71c43 0 61 -18 61 -61v-561c0 -15 8 -22 22 -22h42v-59h-71c-43 0 -61 18 -61 61zM223 332v80h77v-80h-77z" />
    <glyph glyph-name="Lslash" unicode="&#x141;" horiz-adv-x="530" 
d="M107 61v277l-65 -36v70l65 37v210c0 15 -8 22 -22 22h-43v62h74c43 0 61 -18 61 -61v-193l109 64v-72l-109 -63v-294c0 -15 8 -22 22 -22h233c14 0 22 7 22 22v47h66v-70c0 -43 -18 -61 -61 -61h-291c-43 0 -61 18 -61 61z" />
    <glyph glyph-name="lslash" unicode="&#x142;" horiz-adv-x="267" 
d="M101 61v294l-85 -48v71l85 49v195c0 14 -8 22 -22 22h-42v59h71c43 0 61 -18 61 -61v-176l83 48v-72l-83 -48v-313c0 -15 8 -22 22 -22h42v-59h-71c-43 0 -61 18 -61 61z" />
    <glyph glyph-name="Nacute" unicode="&#x143;" horiz-adv-x="760" 
d="M42 0v62h43c14 0 22 7 22 22v619h64l359 -501c24 -35 57 -92 57 -92h2s-5 55 -5 92v440c0 43 18 61 61 61h74v-62h-43c-14 0 -22 -7 -22 -22v-619h-64l-359 501c-25 34 -58 91 -58 91h-2s6 -54 6 -91v-440c0 -43 -18 -61 -61 -61h-74zM361 752l70 119h76l-87 -119h-59z
" />
    <glyph glyph-name="nacute" unicode="&#x144;" horiz-adv-x="608" 
d="M87 0v422c0 14 -8 22 -22 22h-42v59h70c42 0 61 -18 61 -56v-23c0 -20 -2 -36 -2 -36h2c18 46 82 127 200 127c125 0 169 -71 169 -195v-239c0 -15 8 -22 22 -22h42v-59h-71c-43 0 -61 18 -61 61v241c0 79 -12 149 -109 149c-86 0 -160 -59 -183 -142
c-6 -21 -8 -44 -8 -68v-241h-68zM287 584l70 119h76l-87 -119h-59z" />
    <glyph glyph-name="Ncommaaccent" unicode="&#x145;" horiz-adv-x="760" 
d="M42 0v62h43c14 0 22 7 22 22v619h64l359 -501c24 -35 57 -92 57 -92h2s-5 55 -5 92v440c0 43 18 61 61 61h74v-62h-43c-14 0 -22 -7 -22 -22v-619h-64l-359 501c-25 34 -58 91 -58 91h-2s6 -54 6 -91v-440c0 -43 -18 -61 -61 -61h-74zM344 -63h62c5 -17 7 -32 7 -48
c0 -30 -9 -56 -24 -89h-53c12 30 19 54 19 80c0 17 -3 36 -11 57z" />
    <glyph glyph-name="ncommaaccent" unicode="&#x146;" horiz-adv-x="608" 
d="M87 0v422c0 14 -8 22 -22 22h-42v59h70c42 0 61 -18 61 -56v-23c0 -20 -2 -36 -2 -36h2c18 46 82 127 200 127c125 0 169 -71 169 -195v-239c0 -15 8 -22 22 -22h42v-59h-71c-43 0 -61 18 -61 61v241c0 79 -12 149 -109 149c-86 0 -160 -59 -183 -142
c-6 -21 -8 -44 -8 -68v-241h-68zM287 -63h62c5 -17 7 -32 7 -48c0 -30 -9 -56 -24 -89h-53c12 30 19 54 19 80c0 17 -3 36 -11 57z" />
    <glyph glyph-name="Ncaron" unicode="&#x147;" horiz-adv-x="760" 
d="M42 0v62h43c14 0 22 7 22 22v619h64l359 -501c24 -35 57 -92 57 -92h2s-5 55 -5 92v440c0 43 18 61 61 61h74v-62h-43c-14 0 -22 -7 -22 -22v-619h-64l-359 501c-25 34 -58 91 -58 91h-2s6 -54 6 -91v-440c0 -43 -18 -61 -61 -61h-74zM356 752l-84 119h64l54 -80h2l54 80
h63l-84 -119h-69z" />
    <glyph glyph-name="ncaron" unicode="&#x148;" horiz-adv-x="608" 
d="M87 0v422c0 14 -8 22 -22 22h-42v59h70c42 0 61 -18 61 -56v-23c0 -20 -2 -36 -2 -36h2c18 46 82 127 200 127c125 0 169 -71 169 -195v-239c0 -15 8 -22 22 -22h42v-59h-71c-43 0 -61 18 -61 61v241c0 79 -12 149 -109 149c-86 0 -160 -59 -183 -142
c-6 -21 -8 -44 -8 -68v-241h-68zM282 584l-84 119h64l54 -80h2l54 80h63l-84 -119h-69z" />
    <glyph glyph-name="napostrophe" unicode="&#x149;" horiz-adv-x="632" 
d="M111 0v422c0 14 -8 22 -22 22h-42v59h70c42 0 61 -18 61 -56v-23c0 -20 -2 -36 -2 -36h2c18 46 82 127 200 127c125 0 169 -71 169 -195v-239c0 -15 8 -22 22 -22h42v-59h-71c-43 0 -61 18 -61 61v241c0 79 -12 149 -109 149c-86 0 -160 -59 -183 -142
c-6 -21 -8 -44 -8 -68v-241h-68zM-1 703h62c5 -17 7 -32 7 -48c0 -30 -9 -56 -24 -89h-53c12 30 19 54 19 80c0 17 -3 36 -11 57z" />
    <glyph glyph-name="Eng" unicode="&#x14a;" horiz-adv-x="760" 
d="M42 0v62h43c14 0 22 7 22 22v619h64l359 -501c24 -35 57 -92 57 -92h2s-5 55 -5 92v440c0 43 18 61 61 61h74v-62h-43c-14 0 -22 -7 -22 -22v-607c0 -166 -110 -217 -209 -217v65c62 0 139 37 139 143v7l-353 491c-25 34 -58 91 -58 91h-2s6 -54 6 -91v-440
c0 -43 -18 -61 -61 -61h-74z" />
    <glyph glyph-name="eng" unicode="&#x14b;" horiz-adv-x="603" 
d="M87 0v422c0 14 -8 22 -22 22h-42v59h70c42 0 61 -18 61 -56v-23c0 -20 -2 -36 -2 -36h2c18 46 82 127 200 127c125 0 169 -71 169 -195v-343c0 -167 -118 -187 -175 -187c-18 0 -29 3 -29 3v59s9 -1 22 -1c39 0 114 14 114 129v322c0 79 -12 149 -109 149
c-86 0 -160 -59 -183 -143c-6 -20 -8 -43 -8 -67v-241h-68z" />
    <glyph glyph-name="Omacron" unicode="&#x14c;" horiz-adv-x="791" 
d="M38 356c0 202 158 359 358 359c199 0 358 -157 358 -359c0 -206 -159 -368 -358 -368c-200 0 -358 162 -358 368zM111 356c0 -170 127 -302 285 -302c157 0 285 132 285 302c0 166 -128 293 -285 293c-158 0 -285 -127 -285 -293zM270 785v54h246v-54h-246z" />
    <glyph glyph-name="omacron" unicode="&#x14d;" horiz-adv-x="611" 
d="M40 254c0 149 119 261 265 261c147 0 266 -112 266 -261c0 -152 -119 -266 -265 -266c-147 0 -266 114 -266 266zM110 254c0 -117 88 -205 196 -205c107 0 195 88 195 205c0 114 -88 199 -195 199c-108 0 -196 -85 -196 -199zM183 617v54h246v-54h-246z" />
    <glyph glyph-name="Obreve" unicode="&#x14e;" horiz-adv-x="791" 
d="M38 356c0 202 158 359 358 359c199 0 358 -157 358 -359c0 -206 -159 -368 -358 -368c-200 0 -358 162 -358 368zM111 356c0 -170 127 -302 285 -302c157 0 285 132 285 302c0 166 -128 293 -285 293c-158 0 -285 -127 -285 -293zM393 749c-57 0 -114 36 -114 107v15h52
v-13c0 -44 29 -62 62 -62c31 0 61 18 61 62v13h52v-15c0 -71 -57 -107 -113 -107z" />
    <glyph glyph-name="obreve" unicode="&#x14f;" horiz-adv-x="611" 
d="M40 254c0 149 119 261 265 261c147 0 266 -112 266 -261c0 -152 -119 -266 -265 -266c-147 0 -266 114 -266 266zM110 254c0 -117 88 -205 196 -205c107 0 195 88 195 205c0 114 -88 199 -195 199c-108 0 -196 -85 -196 -199zM306 581c-57 0 -114 36 -114 107v15h52v-13
c0 -44 29 -62 62 -62c31 0 61 18 61 62v13h52v-15c0 -71 -57 -107 -113 -107z" />
    <glyph glyph-name="Ohungarumlaut" unicode="&#x150;" horiz-adv-x="791" 
d="M38 356c0 202 158 359 358 359c199 0 358 -157 358 -359c0 -206 -159 -368 -358 -368c-200 0 -358 162 -358 368zM111 356c0 -170 127 -302 285 -302c157 0 285 132 285 302c0 166 -128 293 -285 293c-158 0 -285 -127 -285 -293zM428 752l70 119h76l-87 -119h-59z
M295 752l66 119h65l-67 -119h-64z" />
    <glyph glyph-name="ohungarumlaut" unicode="&#x151;" horiz-adv-x="611" 
d="M40 254c0 149 119 261 265 261c147 0 266 -112 266 -261c0 -152 -119 -266 -265 -266c-147 0 -266 114 -266 266zM110 254c0 -117 88 -205 196 -205c107 0 195 88 195 205c0 114 -88 199 -195 199c-108 0 -196 -85 -196 -199zM341 584l70 119h76l-87 -119h-59zM208 584
l66 119h65l-67 -119h-64z" />
    <glyph glyph-name="OE" unicode="&#x152;" horiz-adv-x="910" 
d="M38 352c0 202 143 361 339 361c47 0 105 -10 142 -10h276c43 0 61 -18 61 -61v-70h-65v47c0 15 -8 22 -22 22h-233v-256h256v-62h-256v-261h262c14 0 22 7 22 22v47h65v-70c0 -43 -18 -61 -56 -61h-309c-36 0 -96 -10 -143 -10c-196 0 -339 158 -339 362zM111 352
c0 -168 106 -295 266 -295c29 0 67 2 89 7v574c-22 5 -60 8 -89 8c-160 0 -266 -127 -266 -294z" />
    <glyph glyph-name="oe" unicode="&#x153;" horiz-adv-x="1010" 
d="M40 250c0 160 121 265 265 265c101 0 185 -52 228 -135h2c39 86 118 135 215 135c139 0 211 -107 211 -232c0 -12 -2 -34 -2 -34h-386c5 -131 94 -200 195 -200c92 0 151 62 151 62l33 -51s-73 -72 -187 -72c-105 0 -188 53 -229 137h-2c-42 -85 -126 -137 -229 -137
c-144 0 -265 103 -265 262zM576 303h315c-5 104 -67 155 -142 155c-83 0 -156 -54 -173 -155zM110 250c0 -121 88 -201 195 -201c106 0 195 80 195 205c0 122 -91 199 -195 199c-107 0 -195 -81 -195 -203z" />
    <glyph glyph-name="Racute" unicode="&#x154;" horiz-adv-x="605" 
d="M107 0v641h-65v62h298c118 0 202 -78 202 -200c0 -109 -67 -173 -136 -188v-2s14 -8 24 -28l101 -200c10 -21 25 -23 50 -23h14v-62h-31c-57 0 -74 7 -97 53l-101 201c-19 37 -32 42 -71 42h-118v-296h-70zM177 358h156c84 0 136 55 136 143c0 87 -52 140 -135 140h-157
v-283zM253 752l70 119h76l-87 -119h-59z" />
    <glyph glyph-name="racute" unicode="&#x155;" horiz-adv-x="361" 
d="M87 0v422c0 14 -8 22 -22 22h-42v59h70c42 0 61 -17 61 -57v-34c0 -21 -2 -38 -2 -38h2c24 76 80 134 159 134c14 0 27 -3 27 -3v-67s-12 2 -25 2c-71 0 -124 -56 -146 -130c-10 -32 -14 -66 -14 -98v-212h-68zM155 584l70 119h76l-87 -119h-59z" />
    <glyph glyph-name="Rcommaaccent" unicode="&#x156;" horiz-adv-x="605" 
d="M107 0v641h-65v62h298c118 0 202 -78 202 -200c0 -109 -67 -173 -136 -188v-2s14 -8 24 -28l101 -200c10 -21 25 -23 50 -23h14v-62h-31c-57 0 -74 7 -97 53l-101 201c-19 37 -32 42 -71 42h-118v-296h-70zM177 358h156c84 0 136 55 136 143c0 87 -52 140 -135 140h-157
v-283zM298 -63h62c5 -17 7 -32 7 -48c0 -30 -9 -56 -24 -89h-53c12 30 19 54 19 80c0 17 -3 36 -11 57z" />
    <glyph glyph-name="rcommaaccent" unicode="&#x157;" horiz-adv-x="361" 
d="M87 0v422c0 14 -8 22 -22 22h-42v59h70c42 0 61 -17 61 -57v-34c0 -21 -2 -38 -2 -38h2c24 76 80 134 159 134c14 0 27 -3 27 -3v-67s-12 2 -25 2c-71 0 -124 -56 -146 -130c-10 -32 -14 -66 -14 -98v-212h-68zM93 -63h62c5 -17 7 -32 7 -48c0 -30 -9 -56 -24 -89h-53
c12 30 19 54 19 80c0 17 -3 36 -11 57z" />
    <glyph glyph-name="Rcaron" unicode="&#x158;" horiz-adv-x="605" 
d="M107 0v641h-65v62h298c118 0 202 -78 202 -200c0 -109 -67 -173 -136 -188v-2s14 -8 24 -28l101 -200c10 -21 25 -23 50 -23h14v-62h-31c-57 0 -74 7 -97 53l-101 201c-19 37 -32 42 -71 42h-118v-296h-70zM177 358h156c84 0 136 55 136 143c0 87 -52 140 -135 140h-157
v-283zM248 752l-84 119h64l54 -80h2l54 80h63l-84 -119h-69z" />
    <glyph glyph-name="rcaron" unicode="&#x159;" horiz-adv-x="361" 
d="M87 0v422c0 14 -8 22 -22 22h-42v59h70c42 0 61 -17 61 -57v-34c0 -21 -2 -38 -2 -38h2c24 76 80 134 159 134c14 0 27 -3 27 -3v-67s-12 2 -25 2c-71 0 -124 -56 -146 -130c-10 -32 -14 -66 -14 -98v-212h-68zM151 584l-84 119h64l54 -80h2l54 80h63l-84 -119h-69z" />
    <glyph glyph-name="Sacute" unicode="&#x15a;" horiz-adv-x="518" 
d="M37 88l43 51s71 -86 182 -86c77 0 139 50 139 125c0 174 -347 139 -347 357c0 98 85 180 215 180c68 0 190 -29 190 -121v-50h-66v33c0 42 -58 73 -123 73c-91 0 -144 -53 -144 -113c0 -163 347 -123 347 -355c0 -105 -81 -194 -213 -194c-144 0 -223 100 -223 100z
M235 752l70 119h76l-87 -119h-59z" />
    <glyph glyph-name="sacute" unicode="&#x15b;" horiz-adv-x="440" 
d="M29 76l39 47s56 -76 155 -76c56 0 106 27 106 80c0 110 -282 90 -282 252c0 91 78 136 179 136c51 0 153 -20 153 -91v-43h-64v24c0 37 -54 51 -87 51c-70 0 -112 -24 -112 -73c0 -113 282 -87 282 -254c0 -84 -76 -141 -176 -141c-131 0 -193 88 -193 88zM189 584
l70 119h76l-87 -119h-59z" />
    <glyph glyph-name="Scircumflex" unicode="&#x15c;" horiz-adv-x="518" 
d="M37 88l43 51s71 -86 182 -86c77 0 139 50 139 125c0 174 -347 139 -347 357c0 98 85 180 215 180c68 0 190 -29 190 -121v-50h-66v33c0 42 -58 73 -123 73c-91 0 -144 -53 -144 -113c0 -163 347 -123 347 -355c0 -105 -81 -194 -213 -194c-144 0 -223 100 -223 100z
M147 752l83 119h70l83 -119h-63l-54 81h-2l-54 -81h-63z" />
    <glyph glyph-name="scircumflex" unicode="&#x15d;" horiz-adv-x="440" 
d="M29 76l39 47s56 -76 155 -76c56 0 106 27 106 80c0 110 -282 90 -282 252c0 91 78 136 179 136c51 0 153 -20 153 -91v-43h-64v24c0 37 -54 51 -87 51c-70 0 -112 -24 -112 -73c0 -113 282 -87 282 -254c0 -84 -76 -141 -176 -141c-131 0 -193 88 -193 88zM101 584
l83 119h70l83 -119h-63l-54 81h-2l-54 -81h-63z" />
    <glyph glyph-name="Scedilla" unicode="&#x15e;" horiz-adv-x="518" 
d="M37 88l43 51s71 -86 182 -86c77 0 139 50 139 125c0 174 -347 139 -347 357c0 98 85 180 215 180c68 0 190 -29 190 -121v-50h-66v33c0 42 -58 73 -123 73c-91 0 -144 -53 -144 -113c0 -163 347 -123 347 -355c0 -101 -74 -187 -197 -194l-8 -43c41 -6 70 -31 70 -71
c0 -58 -47 -79 -96 -79c-29 0 -49 5 -49 5v48s19 -6 41 -6c26 0 51 7 51 34c0 22 -22 34 -57 34c-7 0 -15 -1 -15 -1l19 81c-126 11 -195 98 -195 98z" />
    <glyph glyph-name="scedilla" unicode="&#x15f;" horiz-adv-x="440" 
d="M29 76l39 47s56 -76 155 -76c56 0 106 27 106 80c0 110 -282 90 -282 252c0 91 78 136 179 136c51 0 153 -20 153 -91v-43h-64v24c0 37 -54 51 -87 51c-70 0 -112 -24 -112 -73c0 -113 282 -87 282 -254c0 -83 -72 -137 -168 -141l-8 -43c41 -6 70 -31 70 -71
c0 -58 -47 -79 -96 -79c-29 0 -49 5 -49 5v48s19 -6 41 -6c26 0 51 7 51 34c0 22 -22 34 -57 34c-7 0 -15 -1 -15 -1l19 82c-106 12 -157 85 -157 85z" />
    <glyph glyph-name="Scaron" unicode="&#x160;" horiz-adv-x="518" 
d="M37 88l43 51s71 -86 182 -86c77 0 139 50 139 125c0 174 -347 139 -347 357c0 98 85 180 215 180c68 0 190 -29 190 -121v-50h-66v33c0 42 -58 73 -123 73c-91 0 -144 -53 -144 -113c0 -163 347 -123 347 -355c0 -105 -81 -194 -213 -194c-144 0 -223 100 -223 100z
M231 752l-84 119h64l54 -80h2l54 80h63l-84 -119h-69z" />
    <glyph glyph-name="scaron" unicode="&#x161;" horiz-adv-x="440" 
d="M29 76l39 47s56 -76 155 -76c56 0 106 27 106 80c0 110 -282 90 -282 252c0 91 78 136 179 136c51 0 153 -20 153 -91v-43h-64v24c0 37 -54 51 -87 51c-70 0 -112 -24 -112 -73c0 -113 282 -87 282 -254c0 -84 -76 -141 -176 -141c-131 0 -193 88 -193 88zM185 584
l-84 119h64l54 -80h2l54 80h63l-84 -119h-69z" />
    <glyph glyph-name="Tcommaaccent" unicode="&#x162;" horiz-adv-x="620" 
d="M518 641h-173v-641h-14l-10 -55c41 -6 70 -31 70 -71c0 -58 -47 -79 -96 -79c-29 0 -50 5 -50 5v48s19 -6 42 -6c26 0 51 7 51 34c0 22 -22 34 -57 34c-7 0 -15 -1 -15 -1l21 91h-12v641h-174c-14 0 -22 -6 -22 -22v-47h-64v74c0 43 14 57 57 57h476c43 0 57 -14 57 -57
v-74h-65v47c0 16 -8 22 -22 22z" />
    <glyph glyph-name="tcommaaccent" unicode="&#x163;" horiz-adv-x="335" 
d="M93 183v263h-66v57h67v139h67v-139h126v-57h-126v-256c0 -118 75 -133 113 -133c14 0 23 2 23 2v-61s-12 -2 -29 -2c-14 0 -30 1 -49 5l-10 -56c41 -6 70 -31 70 -71c0 -58 -47 -79 -96 -79c-29 0 -49 5 -49 5v48s19 -6 41 -6c26 0 51 7 51 34c0 22 -22 34 -57 34
c-7 0 -15 -1 -15 -1l25 105c-46 22 -86 69 -86 169z" />
    <glyph glyph-name="Tcaron" unicode="&#x164;" horiz-adv-x="620" 
d="M275 0v641h-174c-14 0 -22 -6 -22 -22v-47h-64v74c0 43 14 57 57 57h476c43 0 57 -14 57 -57v-74h-65v47c0 16 -7 22 -22 22h-173v-641h-70zM276 752l-84 119h64l54 -80h2l54 80h63l-84 -119h-69z" />
    <glyph glyph-name="tcaron" unicode="&#x165;" horiz-adv-x="348" 
d="M94 183v263h-66v57h67v139h67v-139h126v-57h-126v-256c0 -118 75 -133 113 -133c14 0 23 2 23 2v-61s-12 -2 -29 -2c-58 0 -175 19 -175 187zM230 703h62c5 -17 7 -32 7 -48c0 -30 -9 -56 -24 -89h-53c12 30 19 54 19 80c0 17 -3 36 -11 57z" />
    <glyph glyph-name="Tbar" unicode="&#x166;" horiz-adv-x="620" 
d="M275 0v324h-161v57h161v260h-174c-14 0 -22 -6 -22 -22v-47h-64v74c0 43 14 57 57 57h476c43 0 57 -14 57 -57v-74h-65v47c0 16 -7 22 -22 22h-173v-260h165v-57h-165v-324h-70z" />
    <glyph glyph-name="tbar" unicode="&#x167;" horiz-adv-x="335" 
d="M93 183v95h-66v53h66v115h-66v57h67v139h67v-139h126v-57h-126v-115h126v-53h-126v-90c0 -115 75 -131 113 -131c14 0 23 2 23 2v-61s-12 -2 -29 -2c-58 0 -175 19 -175 187z" />
    <glyph glyph-name="Utilde" unicode="&#x168;" horiz-adv-x="717" 
d="M99 241v378c0 15 -8 22 -22 22h-43v62h74c43 0 61 -18 61 -61v-398c0 -117 74 -190 189 -190s190 73 190 192v396c0 43 18 61 61 61h74v-62h-43c-14 0 -22 -7 -22 -22v-378c0 -152 -104 -253 -259 -253s-260 101 -260 253zM202 755c0 77 31 117 93 117
c67 0 81 -72 126 -72c33 0 40 43 40 69h53c0 -77 -32 -117 -93 -117c-68 0 -81 71 -127 71c-33 0 -40 -42 -40 -68h-52z" />
    <glyph glyph-name="utilde" unicode="&#x169;" horiz-adv-x="603" 
d="M85 183v239c0 14 -8 22 -22 22h-42v59h71c43 0 61 -18 61 -59v-243c0 -79 13 -149 110 -149c114 0 185 101 185 210v241h68v-422c0 -15 8 -22 22 -22h42v-59h-69c-42 0 -61 18 -61 56v23c0 20 2 36 2 36h-2c-20 -49 -86 -127 -196 -127c-119 0 -169 64 -169 195zM137 587
c0 77 31 117 93 117c67 0 81 -72 126 -72c33 0 40 43 40 69h53c0 -77 -32 -117 -93 -117c-68 0 -81 71 -127 71c-33 0 -40 -42 -40 -68h-52z" />
    <glyph glyph-name="Umacron" unicode="&#x16a;" horiz-adv-x="717" 
d="M99 241v378c0 15 -8 22 -22 22h-43v62h74c43 0 61 -18 61 -61v-398c0 -117 74 -190 189 -190s190 73 190 192v396c0 43 18 61 61 61h74v-62h-43c-14 0 -22 -7 -22 -22v-378c0 -152 -104 -253 -259 -253s-260 101 -260 253zM237 785v54h246v-54h-246z" />
    <glyph glyph-name="umacron" unicode="&#x16b;" horiz-adv-x="603" 
d="M85 183v239c0 14 -8 22 -22 22h-42v59h71c43 0 61 -18 61 -59v-243c0 -79 13 -149 110 -149c114 0 185 101 185 210v241h68v-422c0 -15 8 -22 22 -22h42v-59h-69c-42 0 -61 18 -61 56v23c0 20 2 36 2 36h-2c-20 -49 -86 -127 -196 -127c-119 0 -169 64 -169 195zM172 617
v54h246v-54h-246z" />
    <glyph glyph-name="Ubreve" unicode="&#x16c;" horiz-adv-x="717" 
d="M99 241v378c0 15 -8 22 -22 22h-43v62h74c43 0 61 -18 61 -61v-398c0 -117 74 -190 189 -190s190 73 190 192v396c0 43 18 61 61 61h74v-62h-43c-14 0 -22 -7 -22 -22v-378c0 -152 -104 -253 -259 -253s-260 101 -260 253zM360 749c-57 0 -114 36 -114 107v15h52v-13
c0 -44 29 -62 62 -62c31 0 61 18 61 62v13h52v-15c0 -71 -57 -107 -113 -107z" />
    <glyph glyph-name="ubreve" unicode="&#x16d;" horiz-adv-x="603" 
d="M85 183v239c0 14 -8 22 -22 22h-42v59h71c43 0 61 -18 61 -59v-243c0 -79 13 -149 110 -149c114 0 185 101 185 210v241h68v-422c0 -15 8 -22 22 -22h42v-59h-69c-42 0 -61 18 -61 56v23c0 20 2 36 2 36h-2c-20 -49 -86 -127 -196 -127c-119 0 -169 64 -169 195zM295 581
c-57 0 -114 36 -114 107v15h52v-13c0 -44 29 -62 62 -62c31 0 61 18 61 62v13h52v-15c0 -71 -57 -107 -113 -107z" />
    <glyph glyph-name="Uring" unicode="&#x16e;" horiz-adv-x="717" 
d="M99 241v378c0 15 -8 22 -22 22h-43v62h74c43 0 61 -18 61 -61v-398c0 -117 74 -190 189 -190s190 73 190 192v396c0 43 18 61 61 61h74v-62h-43c-14 0 -22 -7 -22 -22v-378c0 -152 -104 -253 -259 -253s-260 101 -260 253zM360 741c-40 0 -74 29 -74 71s34 71 74 71
s74 -29 74 -71s-34 -71 -74 -71zM360 779c19 0 33 14 33 33c0 20 -14 34 -33 34s-33 -14 -33 -34c0 -19 13 -33 33 -33z" />
    <glyph glyph-name="uring" unicode="&#x16f;" horiz-adv-x="603" 
d="M85 183v239c0 14 -8 22 -22 22h-42v59h71c43 0 61 -18 61 -59v-243c0 -79 13 -149 110 -149c114 0 185 101 185 210v241h68v-422c0 -15 8 -22 22 -22h42v-59h-69c-42 0 -61 18 -61 56v23c0 20 2 36 2 36h-2c-20 -49 -86 -127 -196 -127c-119 0 -169 64 -169 195zM295 573
c-40 0 -74 29 -74 71s34 71 74 71s74 -29 74 -71s-34 -71 -74 -71zM295 611c19 0 33 14 33 33c0 20 -14 34 -33 34s-33 -14 -33 -34c0 -19 13 -33 33 -33z" />
    <glyph glyph-name="Uhungarumlaut" unicode="&#x170;" horiz-adv-x="717" 
d="M99 241v378c0 15 -8 22 -22 22h-43v62h74c43 0 61 -18 61 -61v-398c0 -117 74 -190 189 -190s190 73 190 192v396c0 43 18 61 61 61h74v-62h-43c-14 0 -22 -7 -22 -22v-378c0 -152 -104 -253 -259 -253s-260 101 -260 253zM395 752l70 119h76l-87 -119h-59zM262 752
l66 119h65l-67 -119h-64z" />
    <glyph glyph-name="uhungarumlaut" unicode="&#x171;" horiz-adv-x="603" 
d="M85 183v239c0 14 -8 22 -22 22h-42v59h71c43 0 61 -18 61 -59v-243c0 -79 13 -149 110 -149c114 0 185 101 185 210v241h68v-422c0 -15 8 -22 22 -22h42v-59h-69c-42 0 -61 18 -61 56v23c0 20 2 36 2 36h-2c-20 -49 -86 -127 -196 -127c-119 0 -169 64 -169 195zM330 584
l70 119h76l-87 -119h-59zM197 584l66 119h65l-67 -119h-64z" />
    <glyph glyph-name="Uogonek" unicode="&#x172;" horiz-adv-x="717" 
d="M99 241v378c0 15 -8 22 -22 22h-43v62h74c43 0 61 -18 61 -61v-398c0 -117 74 -190 189 -190s190 73 190 192v396c0 43 18 61 61 61h74v-62h-43c-14 0 -22 -7 -22 -22v-384c0 -124 -75 -188 -136 -222c-43 -25 -95 -65 -95 -112c0 -45 62 -50 62 -50l-16 -56
s-110 7 -110 92c0 43 26 77 52 101v2s-11 -1 -20 -1c-152 0 -256 102 -256 252z" />
    <glyph glyph-name="uogonek" unicode="&#x173;" horiz-adv-x="603" 
d="M254 -12c-119 0 -169 64 -169 195v239c0 14 -8 22 -22 22h-42v59h71c56 0 61 -27 61 -87v-215c0 -79 13 -149 110 -149c114 0 185 101 185 210v241h68v-422c0 -15 8 -22 22 -22h42v-59c-21 -17 -72 -59 -72 -99c0 -45 62 -50 62 -50l-15 -56s-110 7 -110 92
c0 51 39 92 67 112v2h-11c-32 0 -51 18 -51 55v23c0 19 2 35 2 35h-3s-49 -126 -195 -126z" />
    <glyph glyph-name="Wcircumflex" unicode="&#x174;" horiz-adv-x="945" 
d="M227 0l-161 619c-5 19 -18 22 -37 22h-12v62h31c50 0 73 -9 85 -58l122 -485c9 -36 15 -75 15 -75h2s9 39 19 75l155 540h69l141 -540c10 -36 16 -75 16 -75h2s7 39 16 75l122 485c12 49 35 58 85 58h31v-62h-11c-20 0 -32 -3 -37 -22l-162 -619h-83l-131 489
c-12 45 -23 104 -23 104h-2s-12 -58 -25 -103l-144 -490h-83zM362 752l83 119h70l83 -119h-63l-54 81h-2l-54 -81h-63z" />
    <glyph glyph-name="wcircumflex" unicode="&#x175;" horiz-adv-x="834" 
d="M202 0l-144 421c-6 18 -17 23 -35 23h-13v59h35c48 0 64 -9 79 -56l103 -319c8 -24 15 -54 15 -54h2s8 30 16 54l123 373h68l123 -373c8 -24 16 -54 16 -54h2s6 29 14 54l104 319c15 47 31 56 79 56h35v-59h-14c-17 0 -29 -5 -35 -23l-144 -421h-75l-123 358
c-8 25 -15 54 -15 54h-2s-7 -29 -16 -54l-122 -358h-76zM299 584l83 119h70l83 -119h-63l-54 81h-2l-54 -81h-63z" />
    <glyph glyph-name="Ycircumflex" unicode="&#x176;" horiz-adv-x="592" 
d="M261 0v306l-188 309c-13 21 -26 26 -47 26h-16v62h27c48 0 66 -7 96 -56l119 -199c22 -37 43 -79 43 -79h2s21 42 43 79l119 199c30 49 48 56 96 56h27v-62h-16c-20 0 -34 -5 -46 -26l-189 -309v-306h-70zM179 752l83 119h70l83 -119h-63l-54 81h-2l-54 -81h-63z" />
    <glyph glyph-name="ycircumflex" unicode="&#x177;" horiz-adv-x="539" 
d="M40 -111c0 -1 32 -38 75 -38c44 0 74 36 93 82l30 69l-177 419c-8 18 -17 23 -35 23h-10v59h31c45 0 59 -10 77 -55l129 -314c10 -25 18 -54 18 -54h2s7 29 17 54l124 314c17 45 32 55 78 55h31v-59h-10c-18 0 -28 -5 -35 -23l-217 -526c-26 -64 -77 -105 -144 -105
c-70 0 -109 49 -109 49zM150 584l83 119h70l83 -119h-63l-54 81h-2l-54 -81h-63z" />
    <glyph glyph-name="Ydieresis" unicode="&#x178;" horiz-adv-x="592" 
d="M261 0v306l-188 309c-13 21 -26 26 -47 26h-16v62h27c48 0 66 -7 96 -56l119 -199c22 -37 43 -79 43 -79h2s21 42 43 79l119 199c30 49 48 56 96 56h27v-62h-16c-20 0 -34 -5 -46 -26l-189 -309v-306h-70zM343 785v86h59v-86h-59zM193 785v86h59v-86h-59z" />
    <glyph glyph-name="Zacute" unicode="&#x179;" horiz-adv-x="575" 
d="M19 0v49l377 528c26 37 51 64 51 64v2s-17 -2 -51 -2h-280c-14 0 -22 -7 -22 -22v-47h-65v70c0 43 18 61 61 61h443v-49l-376 -528c-26 -37 -52 -64 -52 -64v-2s17 2 52 2h303c14 0 22 7 22 22v47h65v-70c0 -43 -18 -61 -61 -61h-467zM262 752l70 119h76l-87 -119h-59z
" />
    <glyph glyph-name="zacute" unicode="&#x17a;" horiz-adv-x="499" 
d="M39 0v44l283 353c19 24 40 46 40 46v2s-17 -2 -50 -2h-184c-14 0 -22 -7 -22 -22v-39h-64v60c0 43 18 61 61 61h349v-45l-282 -352c-20 -24 -42 -46 -42 -46v-2s18 2 51 2h208c14 0 22 7 22 22v39h64v-60c0 -43 -18 -61 -61 -61h-373zM228 584l70 119h76l-87 -119h-59z
" />
    <glyph glyph-name="Zdotaccent" unicode="&#x17b;" horiz-adv-x="575" 
d="M19 0v49l377 528c26 37 51 64 51 64v2s-17 -2 -51 -2h-280c-14 0 -22 -7 -22 -22v-47h-65v70c0 43 18 61 61 61h443v-49l-376 -528c-26 -37 -52 -64 -52 -64v-2s17 2 52 2h303c14 0 22 7 22 22v47h65v-70c0 -43 -18 -61 -61 -61h-467zM259 785v86h66v-86h-66z" />
    <glyph glyph-name="zdotaccent" unicode="&#x17c;" horiz-adv-x="499" 
d="M39 0v44l283 353c19 24 40 46 40 46v2s-17 -2 -50 -2h-184c-14 0 -22 -7 -22 -22v-39h-64v60c0 43 18 61 61 61h349v-45l-282 -352c-20 -24 -42 -46 -42 -46v-2s18 2 51 2h208c14 0 22 7 22 22v39h64v-60c0 -43 -18 -61 -61 -61h-373zM225 617v86h66v-86h-66z" />
    <glyph glyph-name="Zcaron" unicode="&#x17d;" horiz-adv-x="575" 
d="M19 0v49l377 528c26 37 51 64 51 64v2s-17 -2 -51 -2h-280c-14 0 -22 -7 -22 -22v-47h-65v70c0 43 18 61 61 61h443v-49l-376 -528c-26 -37 -52 -64 -52 -64v-2s17 2 52 2h303c14 0 22 7 22 22v47h65v-70c0 -43 -18 -61 -61 -61h-467zM258 752l-84 119h64l54 -80h2l54 80
h63l-84 -119h-69z" />
    <glyph glyph-name="zcaron" unicode="&#x17e;" horiz-adv-x="499" 
d="M39 0v44l283 353c19 24 40 46 40 46v2s-17 -2 -50 -2h-184c-14 0 -22 -7 -22 -22v-39h-64v60c0 43 18 61 61 61h349v-45l-282 -352c-20 -24 -42 -46 -42 -46v-2s18 2 51 2h208c14 0 22 7 22 22v39h64v-60c0 -43 -18 -61 -61 -61h-373zM223 584l-84 119h64l54 -80h2l54 80
h63l-84 -119h-69z" />
    <glyph glyph-name="longs" unicode="&#x17f;" horiz-adv-x="305" 
d="M88 0v446h-63v57h63v18c0 166 117 187 173 187c19 0 31 -2 31 -2v-61s-9 2 -24 2c-38 0 -112 -14 -112 -126v-521h-68z" />
    <glyph glyph-name="florin" unicode="&#x192;" horiz-adv-x="346" 
d="M-23 -56c-18 0 -30 2 -30 2l6 60s9 -2 23 -2c38 0 113 15 123 129l20 231h-79v58h85l9 99c14 166 132 187 189 187c19 0 31 -2 31 -2l-6 -61s-9 2 -23 2c-40 0 -113 -14 -124 -129l-9 -96h109v-58h-114l-20 -234c-15 -166 -133 -186 -190 -186z" />
    <glyph glyph-name="Scommaaccent" unicode="&#x218;" horiz-adv-x="518" 
d="M37 88l43 51s71 -86 182 -86c77 0 139 50 139 125c0 174 -347 139 -347 357c0 98 85 180 215 180c68 0 190 -29 190 -121v-50h-66v33c0 42 -58 73 -123 73c-91 0 -144 -53 -144 -113c0 -163 347 -123 347 -355c0 -105 -81 -194 -213 -194c-144 0 -223 100 -223 100z
M229 -63h62c5 -17 7 -32 7 -48c0 -30 -9 -56 -24 -89h-53c12 30 19 54 19 80c0 17 -3 36 -11 57z" />
    <glyph glyph-name="scommaaccent" unicode="&#x219;" horiz-adv-x="440" 
d="M29 76l39 47s56 -76 155 -76c56 0 106 27 106 80c0 110 -282 90 -282 252c0 91 78 136 179 136c51 0 153 -20 153 -91v-43h-64v24c0 37 -54 51 -87 51c-70 0 -112 -24 -112 -73c0 -113 282 -87 282 -254c0 -84 -76 -141 -176 -141c-131 0 -193 88 -193 88zM187 -63h62
c5 -17 7 -32 7 -48c0 -30 -9 -56 -24 -89h-53c12 30 19 54 19 80c0 17 -3 36 -11 57z" />
    <glyph glyph-name="uni021A" unicode="&#x21a;" horiz-adv-x="620" 
d="M275 0v641h-174c-14 0 -22 -6 -22 -22v-47h-64v74c0 43 14 57 57 57h476c43 0 57 -14 57 -57v-74h-65v47c0 16 -7 22 -22 22h-173v-641h-70zM277 -63h62c5 -17 7 -32 7 -48c0 -30 -9 -56 -24 -89h-53c12 30 19 54 19 80c0 17 -3 36 -11 57z" />
    <glyph glyph-name="uni021B" unicode="&#x21b;" horiz-adv-x="335" 
d="M93 183v263h-66v57h67v139h67v-139h126v-57h-126v-256c0 -118 75 -133 113 -133c14 0 23 2 23 2v-61s-12 -2 -29 -2c-58 0 -175 19 -175 187zM160 -63h62c5 -17 7 -32 7 -48c0 -30 -9 -56 -24 -89h-53c12 30 19 54 19 80c0 17 -3 36 -11 57z" />
    <glyph glyph-name="circumflex" unicode="&#x2c6;" horiz-adv-x="470" 
d="M117 752l83 119h70l83 -119h-63l-54 81h-2l-54 -81h-63z" />
    <glyph glyph-name="caron" unicode="&#x2c7;" horiz-adv-x="474" 
d="M200 752l-84 119h64l54 -80h2l54 80h63l-84 -119h-69z" />
    <glyph glyph-name="breve" unicode="&#x2d8;" horiz-adv-x="485" 
d="M233 749c-57 0 -114 36 -114 107v15h52v-13c0 -44 29 -62 62 -62c31 0 61 18 61 62v13h52v-15c0 -71 -57 -107 -113 -107z" />
    <glyph glyph-name="dotaccent" unicode="&#x2d9;" horiz-adv-x="223" 
d="M78 785v86h66v-86h-66z" />
    <glyph glyph-name="ring" unicode="&#x2da;" horiz-adv-x="376" 
d="M188 741c-40 0 -74 29 -74 71s34 71 74 71s74 -29 74 -71s-34 -71 -74 -71zM188 779c19 0 33 14 33 33c0 20 -14 34 -33 34s-33 -14 -33 -34c0 -19 13 -33 33 -33z" />
    <glyph glyph-name="ogonek" unicode="&#x2db;" horiz-adv-x="343" 
d="M105 -113c0 79 93 132 93 132l53 -11s-83 -56 -83 -107c0 -45 62 -50 62 -50l-15 -56s-110 7 -110 92z" />
    <glyph glyph-name="tilde" unicode="&#x2dc;" horiz-adv-x="492" 
d="M89 755c0 77 31 117 93 117c67 0 81 -72 126 -72c33 0 40 43 40 69h53c0 -77 -32 -117 -93 -117c-68 0 -81 71 -127 71c-33 0 -40 -42 -40 -68h-52z" />
    <glyph glyph-name="hungarumlaut" unicode="&#x2dd;" horiz-adv-x="516" 
d="M238 752l70 119h76l-87 -119h-59zM105 752l66 119h65l-67 -119h-64z" />
    <glyph glyph-name="germandbls.case" unicode="&#x1e9e;" horiz-adv-x="621" 
d="M34 0v62h43c14 0 22 7 22 22v432c0 106 81 187 188 187h264v-48l-157 -223c-16 -23 -26 -35 -26 -35v-2h31c103 -4 181 -93 181 -195c0 -110 -90 -200 -201 -200h-95v62h91c79 0 133 64 133 138c0 75 -54 137 -131 137h-91v49l136 196c30 45 44 59 44 59v2s-7 -2 -43 -2
h-131c-73 0 -123 -55 -123 -124v-456c0 -43 -18 -61 -61 -61h-74z" />
    <glyph glyph-name="endash" unicode="&#x2013;" horiz-adv-x="642" 
d="M71 255v58h500v-58h-500z" />
    <glyph glyph-name="emdash" unicode="&#x2014;" horiz-adv-x="842" 
d="M71 255v58h700v-58h-700z" />
    <glyph glyph-name="quoteleft" unicode="&#x2018;" horiz-adv-x="212" 
d="M51 540l56 172h54l-39 -172h-71z" />
    <glyph glyph-name="quoteright" unicode="&#x2019;" horiz-adv-x="212" 
d="M51 541l39 172h71l-56 -172h-54z" />
    <glyph glyph-name="quotesinglbase" unicode="&#x201a;" horiz-adv-x="212" 
d="M90 82h71l-56 -172h-54z" />
    <glyph glyph-name="quotedblleft" unicode="&#x201c;" horiz-adv-x="330" 
d="M169 540l56 172h54l-39 -172h-71zM51 540l56 172h54l-39 -172h-71z" />
    <glyph glyph-name="quotedblright" unicode="&#x201d;" horiz-adv-x="330" 
d="M169 541l39 172h71l-56 -172h-54zM51 541l39 172h71l-56 -172h-54z" />
    <glyph glyph-name="quotedblbase" unicode="&#x201e;" horiz-adv-x="330" 
d="M169 -90l39 172h71l-56 -172h-54zM90 82h71l-56 -172h-54z" />
    <glyph glyph-name="dagger" unicode="&#x2020;" horiz-adv-x="363" 
d="M146 -50v495h-117v58h117v200h67v-200h121v-58h-121v-495h-67z" />
    <glyph glyph-name="daggerdbl" unicode="&#x2021;" horiz-adv-x="363" 
d="M146 -50v229h-117v58h117v208h-117v58h117v200h67v-200h121v-58h-121v-208h121v-58h-121v-229h-67z" />
    <glyph glyph-name="bullet" unicode="&#x2022;" horiz-adv-x="439" 
d="M220 148c-79 0 -143 64 -143 143s64 143 143 143s142 -64 142 -143s-63 -143 -142 -143z" />
    <glyph glyph-name="ellipsis" unicode="&#x2026;" horiz-adv-x="817" 
d="M605 0v80h77v-80h-77zM370 0v80h77v-80h-77zM135 0v80h77v-80h-77z" />
    <glyph glyph-name="perthousand" unicode="&#x2030;" horiz-adv-x="1057" 
d="M202 437c-78 0 -140 62 -140 139c0 76 62 139 140 139s141 -63 141 -139c0 -77 -63 -139 -141 -139zM68 0l536 703h71l-535 -703h-72zM202 493c46 0 82 37 82 83c0 45 -36 83 -82 83s-81 -38 -81 -83c0 -46 35 -83 81 -83zM736 126c0 77 63 140 140 140
c78 0 141 -63 141 -140c0 -76 -63 -138 -141 -138c-77 0 -140 62 -140 138zM400 126c0 77 62 140 140 140s141 -63 141 -140c0 -76 -63 -138 -141 -138s-140 62 -140 138zM796 127c0 -46 34 -83 80 -83s82 37 82 83c0 45 -36 83 -82 83s-80 -38 -80 -83zM460 127
c0 -46 34 -83 80 -83s82 37 82 83c0 45 -36 83 -82 83s-80 -38 -80 -83z" />
    <glyph glyph-name="guilsinglleft" unicode="&#x2039;" horiz-adv-x="343" 
d="M202 77l-164 205l164 206h73l-164 -206l164 -205h-73z" />
    <glyph glyph-name="guilsinglright" unicode="&#x203a;" horiz-adv-x="343" 
d="M66 77l164 205l-164 206h74l164 -206l-164 -205h-74z" />
    <glyph glyph-name="fraction" unicode="&#x2044;" horiz-adv-x="416" 
d="M28 0l297 703h63l-297 -703h-63z" />
    <glyph glyph-name="Euro" unicode="&#x20ac;" horiz-adv-x="590" 
d="M39 266v51h57s-2 18 -2 35c0 19 2 46 2 46h-57v51h66c39 155 171 266 336 266c53 0 92 -12 92 -12l-16 -65s-36 11 -77 11c-128 0 -226 -81 -260 -200h303l-10 -51h-304s-4 -20 -4 -44c0 -12 2 -37 2 -37h291l-9 -51h-270c30 -125 132 -212 263 -212c51 0 90 14 90 14
l16 -64s-46 -16 -107 -16c-170 0 -303 115 -338 278h-64z" />
    <glyph glyph-name="trademark" unicode="&#x2122;" horiz-adv-x="976" 
d="M419 265v51h25c7 0 10 3 11 10l29 377h52l115 -251c9 -19 14 -41 14 -41h2s5 22 14 41l115 251h52l29 -377c1 -7 4 -10 11 -10h25v-51h-43c-36 0 -45 10 -48 46l-20 251c-1 15 1 29 1 29h-2l-112 -244h-46l-112 244h-2s2 -14 1 -29l-20 -251c-3 -36 -12 -46 -48 -46h-43z
M199 265v386h-94c-7 0 -10 -3 -10 -10v-30h-52v46c0 35 11 46 47 46h276c36 0 47 -11 47 -46v-46h-52v30c0 7 -3 10 -10 10h-95v-386h-57z" />
    <glyph glyph-name="minus" unicode="&#x2212;" 
d="M50 255v58h506v-58h-506z" />
    <glyph glyph-name="infinity" unicode="&#x221e;" horiz-adv-x="499" 
d="M250 176c-95 0 -173 78 -173 173c0 96 78 172 173 172c96 0 172 -76 172 -172c0 -95 -76 -173 -172 -173z" />
    <glyph glyph-name="approxequal" unicode="&#x2248;" 
d="M91 321l-33 44c33 33 87 69 146 69c94 0 127 -70 198 -70c43 0 86 27 113 56l33 -44c-32 -33 -86 -69 -146 -69c-94 0 -127 70 -198 70c-43 0 -85 -28 -113 -56zM91 147l-33 44c33 33 87 69 146 69c94 0 127 -70 198 -70c43 0 86 28 113 56l33 -44
c-32 -33 -86 -69 -146 -69c-94 0 -127 70 -198 70c-43 0 -85 -28 -113 -56z" />
    <glyph glyph-name="notequal" unicode="&#x2260;" 
d="M126 83l62 85h-118v58h159l86 116h-245v58h285l86 117l42 -30l-65 -87h118v-58h-158l-86 -116h244v-58h-284l-84 -114z" />
    <glyph glyph-name="lessequal" unicode="&#x2264;" 
d="M69 259v50l452 202v-67l-367 -159v-2l367 -159v-67zM70 -104h451v-58h-451v58z" />
    <glyph glyph-name="greaterequal" unicode="&#x2265;" 
d="M85 57v67l368 159v2l-368 159v67l452 -202v-50zM85 -104h451v-58h-451v58z" />
    <glyph glyph-name="T.R" horiz-adv-x="600" 
d="M277 0v641h-175c-16 0 -22 -7 -22 -22v-47h-65v75c0 42 13 56 56 56h503v-62h-227v-641h-70z" />
    <glyph glyph-name="T.L" horiz-adv-x="600" 
d="M253 0v641h-227v62h503c43 0 56 -14 56 -56v-75h-66v47c0 15 -6 22 -22 22h-174v-641h-70z" />
    <glyph glyph-name="T.cut_mid" horiz-adv-x="600" 
d="M265 0v641h-235v62h540v-62h-235v-641h-70z" />
    <glyph glyph-name="commaaccent" horiz-adv-x="335" 
d="M137 -63h62c5 -17 7 -32 7 -48c0 -30 -9 -56 -24 -89h-53c12 30 19 54 19 80c0 17 -3 36 -11 57z" />
    <glyph glyph-name="apple" horiz-adv-x="1130" 
d="M42 128v278l126 71v151l265 142l134 -71l132 71l265 -142v-151l124 -71v-278l-124 -72v-152l-265 -141l-132 71l-134 -71l-265 141v152zM94 142l114 -64v-139l238 -126l121 66l118 -66l238 126v139l114 64v249l-114 66v136l-238 126l-118 -64l-121 64l-238 -126v-136
l-114 -66v-249zM143 154v225l99 58v123l215 114l110 -59l107 59l214 -114v-123l100 -58v-225l-100 -60v-121l-214 -114l-107 58l-110 -58l-215 114v121zM443 0h60v217h218v53h-218v179h176c22 0 27 -7 27 -27v-38h56v64c0 38 -14 55 -56 55h-325v-54h62v-449z" />
    <glyph glyph-name="zero.tnum" horiz-adv-x="568" 
d="M284 -12c-183 0 -242 160 -242 364c0 202 59 363 242 363s243 -161 243 -363c0 -204 -60 -364 -243 -364zM284 53c133 0 171 131 171 299c0 167 -38 298 -171 298s-171 -131 -171 -298c0 -168 38 -299 171 -299z" />
    <glyph glyph-name="one.tnum" horiz-adv-x="560" 
d="M100 0v62h157v516c0 20 1 39 1 39h-2s-7 -15 -35 -42l-75 -75l-44 45l159 158h66v-641h154v-62h-381z" />
    <glyph glyph-name="two.tnum" horiz-adv-x="560" 
d="M45 69c0 261 372 240 372 448c0 75 -55 132 -144 132c-70 0 -125 -36 -125 -76v-33h-66v52c0 89 121 123 193 123c134 0 214 -88 214 -197c0 -247 -372 -241 -372 -436c0 -14 8 -20 23 -20h294c14 0 22 7 22 22v47h65v-70c0 -43 -18 -61 -61 -61h-352
c-48 0 -63 20 -63 69z" />
    <glyph glyph-name="three.tnum" horiz-adv-x="560" 
d="M43 86l42 52s72 -84 184 -84c83 0 159 62 159 152c0 95 -82 148 -171 148h-49l-16 41l173 208c17 23 36 39 36 39v2s-20 -3 -57 -3h-183c-14 0 -22 -7 -22 -22v-47h-65v70c0 43 16 61 59 61h357v-46l-207 -243c88 -5 217 -56 217 -207c0 -119 -99 -219 -232 -219
c-139 0 -225 98 -225 98z" />
    <glyph glyph-name="four.tnum" horiz-adv-x="560" 
d="M14 194v46l342 463h75v-447h112v-62h-112v-194h-70v194h-347zM362 256v287c0 30 3 68 3 68h-2s-17 -29 -36 -54l-195 -258c-19 -25 -37 -44 -37 -44v-2s28 3 58 3h209z" />
    <glyph glyph-name="five.tnum" horiz-adv-x="560" 
d="M48 88l44 49s53 -83 163 -83c100 0 175 71 175 164c0 97 -81 165 -182 165c-79 0 -135 -39 -135 -39l-36 15l30 283c4 43 18 61 61 61h231c42 0 60 -18 60 -61v-70h-65v47c0 15 -8 22 -22 22h-178c-14 0 -20 -7 -22 -22l-18 -159c-3 -25 -6 -40 -6 -40h2s44 26 106 26
c143 0 246 -102 246 -229c0 -125 -104 -229 -247 -229c-140 0 -207 100 -207 100z" />
    <glyph glyph-name="six.tnum" horiz-adv-x="560" 
d="M297 -12c-153 0 -254 137 -254 321c0 179 92 406 309 406c77 0 129 -29 129 -29l-26 -61s-44 25 -102 25c-147 0 -222 -147 -235 -289h2c33 55 106 85 179 85c128 0 219 -92 219 -223c0 -146 -98 -235 -221 -235zM118 264c0 -93 73 -211 178 -211c95 0 151 72 151 169
c0 98 -63 162 -159 162c-94 0 -170 -63 -170 -120z" />
    <glyph glyph-name="seven.tnum" horiz-adv-x="560" 
d="M96 0l306 576c20 38 39 65 39 65v2s-18 -2 -53 -2h-253c-14 0 -22 -7 -22 -22v-47h-66v70c0 43 17 61 60 61h415v-48l-348 -655h-78z" />
    <glyph glyph-name="eight.tnum" horiz-adv-x="560" 
d="M40 198c0 123 125 186 125 186v2s-96 45 -96 145c0 97 76 184 212 184c133 0 215 -78 215 -187c0 -107 -94 -174 -94 -174v-2c66 -34 113 -79 113 -161c0 -110 -102 -203 -236 -203c-124 0 -239 77 -239 210zM274 403c16 -6 50 -19 63 -19c25 0 89 69 89 142
c0 76 -60 124 -145 124c-89 0 -142 -53 -142 -119c0 -74 62 -101 135 -128zM112 201c0 -92 81 -148 167 -148c83 0 164 57 164 139c0 73 -60 102 -134 132c-26 11 -74 28 -82 28c-27 0 -115 -64 -115 -151z" />
    <glyph glyph-name="nine.tnum" horiz-adv-x="560" 
d="M79 17l26 61s44 -25 102 -25c147 0 223 148 235 290h-2c-33 -55 -106 -86 -179 -86c-128 0 -218 92 -218 223c0 146 97 235 220 235c153 0 254 -137 254 -321c0 -179 -91 -406 -309 -406c-77 0 -129 29 -129 29zM272 319c94 0 170 63 170 120c0 93 -73 211 -178 211
c-95 0 -151 -72 -151 -169c0 -98 63 -162 159 -162z" />
    <glyph glyph-name="T_h" horiz-adv-x="1113" 
d="M279 0v641h-178c-14 0 -22 -6 -22 -22v-47h-64v74c0 43 14 57 57 57h526c43 0 61 -18 61 -59v-213c0 -23 -2 -41 -2 -41h2c14 37 76 125 200 125s169 -71 169 -195v-239c0 -15 8 -22 22 -22h42v-59h-71c-43 0 -61 18 -61 61v241c0 79 -12 149 -110 149
c-111 0 -191 -92 -191 -210v-241h-68v619c0 15 -8 22 -22 22h-220v-641h-70z" />
    <glyph glyph-name="T.alt" horiz-adv-x="609" 
d="M278 0v641h-177c-14 0 -22 -6 -22 -22v-47h-64v74c0 43 14 57 57 57h522v-62h-246v-641h-70z" />
    <glyph glyph-name="Tcommaaccent.alt" horiz-adv-x="609" 
d="M15 572v74c0 43 14 57 57 57h522v-62h-246v-641h-14l-11 -55c41 -6 71 -31 71 -71c0 -58 -47 -79 -96 -79c-30 0 -50 5 -50 5v48s19 -6 42 -6c26 0 51 7 51 34c0 22 -22 34 -57 34c-8 0 -15 -1 -15 -1l21 91h-12v641h-177c-14 0 -22 -6 -22 -22v-47h-64z" />
    <glyph glyph-name="Tcaron.alt" horiz-adv-x="609" 
d="M279 752l-83 119h63l54 -80h2l54 80h64l-84 -119h-70zM278 0v641h-177c-14 0 -22 -6 -22 -22v-47h-64v74c0 43 14 57 57 57h522v-62h-246v-641h-70z" />
    <glyph glyph-name="Tbar.alt" horiz-adv-x="609" 
d="M278 0v324h-159v57h159v260h-177c-14 0 -22 -6 -22 -22v-47h-64v74c0 43 14 57 57 57h522v-62h-246v-260h163v-57h-163v-324h-70z" />
    <glyph glyph-name="uni021A.alt" horiz-adv-x="609" 
d="M278 0v641h-177c-14 0 -22 -6 -22 -22v-47h-64v74c0 43 14 57 57 57h522v-62h-246v-641h-70zM280 -63h62c5 -17 7 -32 7 -48c0 -30 -9 -56 -24 -89h-52c11 30 18 54 18 80c0 17 -3 36 -11 57z" />
    <glyph glyph-name="hyphen.case" horiz-adv-x="432" 
d="M74 318v62h284v-62h-284z" />
    <glyph glyph-name="parenleft.case" horiz-adv-x="309" 
d="M85 362c0 146 35 281 108 398h64c-73 -123 -109 -251 -109 -393c0 -149 39 -299 115 -432h-63c-72 118 -115 272 -115 427z" />
    <glyph glyph-name="parenright.case" horiz-adv-x="309" 
d="M46 -65c76 133 115 283 115 432c0 142 -36 270 -109 393h64c72 -117 108 -252 108 -398c0 -155 -43 -309 -115 -427h-63z" />
    <glyph glyph-name="bracketleft.case" horiz-adv-x="303" 
d="M101 -4v703c0 43 18 61 61 61h74v-56h-50c-14 0 -22 -7 -22 -22v-669c0 -15 8 -22 22 -22h50v-56h-74c-43 0 -61 18 -61 61z" />
    <glyph glyph-name="bracketright.case" horiz-adv-x="303" 
d="M67 -9h50c14 0 22 7 22 22v669c0 15 -8 22 -22 22h-50v56h74c43 0 61 -18 61 -61v-703c0 -43 -18 -61 -61 -61h-74v56z" />
    <glyph glyph-name="braceleft.case" horiz-adv-x="326" 
d="M118 113v95c0 104 -85 114 -85 114v62s85 10 85 115v82c0 165 109 179 149 179h15v-56h-9c-25 0 -92 -9 -92 -125v-98c0 -98 -80 -127 -80 -127v-2s80 -25 80 -127v-110c0 -115 67 -125 92 -125h9v-56s-6 -1 -15 -1c-40 0 -149 14 -149 180z" />
    <glyph glyph-name="braceright.case" horiz-adv-x="326" 
d="M44 -10h10c24 0 91 10 91 125v110c0 102 80 127 80 127v2s-80 29 -80 127v98c0 116 -67 125 -91 125h-10v56h16c39 0 148 -14 148 -179v-82c0 -105 85 -115 85 -115v-62s-85 -10 -85 -114v-95c0 -166 -109 -180 -148 -180c-10 0 -16 1 -16 1v56z" />
    <glyph glyph-name="at.case" horiz-adv-x="757" 
d="M41 351c0 204 160 367 356 367c181 0 245 -92 245 -189v-315h71v-56h-269c-115 0 -200 88 -200 192c0 103 84 192 200 192h130c-2 62 -54 117 -172 117c-164 0 -291 -140 -291 -308c0 -170 125 -306 296 -306v-60c-208 0 -366 162 -366 366zM314 350
c0 -75 59 -136 136 -136h124v275h-122c-79 0 -138 -63 -138 -139z" />
    <glyph glyph-name="guillemotleft.case" horiz-adv-x="522" 
d="M217 342l164 206h74l-164 -206l164 -205h-74zM202 137l-164 205l164 206h73l-164 -206l164 -205h-73z" />
    <glyph glyph-name="guillemotright.case" horiz-adv-x="522" 
d="M246 137l164 205l-164 206h74l164 -206l-164 -205h-74zM66 137l164 205l-164 206h74l164 -206l-164 -205h-74z" />
    <glyph glyph-name="guilsinglleft.case" horiz-adv-x="343" 
d="M202 137l-164 205l164 206h73l-164 -206l164 -205h-73z" />
    <glyph glyph-name="guilsinglright.case" horiz-adv-x="343" 
d="M66 137l164 205l-164 206h74l164 -206l-164 -205h-74z" />
    <glyph glyph-name="endash.case" horiz-adv-x="642" 
d="M71 315v58h500v-58h-500z" />
    <glyph glyph-name="emdash.case" horiz-adv-x="842" 
d="M71 315v58h700v-58h-700z" />
    <glyph glyph-name="periodcentered.case" horiz-adv-x="215" 
d="M69 306v80h77v-80h-77z" />
    <glyph glyph-name="questiondown.case" horiz-adv-x="431" 
d="M205 626v77h77v-77h-77zM31 165c0 165 179 180 179 312v42h67v-45c0 -158 -174 -180 -174 -306c0 -64 54 -115 131 -115c68 0 121 42 121 42l37 -50s-62 -57 -161 -57c-114 0 -200 73 -200 177z" />
    <glyph glyph-name="exclamdown.case" horiz-adv-x="297" 
d="M109 626v77h77v-77h-77zM113 0l3 519h64l3 -519h-70z" />
    <glyph glyph-name="bullet.case" horiz-adv-x="439" 
d="M220 209c-79 0 -143 64 -143 143s64 143 143 143s142 -64 142 -143s-63 -143 -142 -143z" />
    </font>
</defs>
</svg>
